<?xml version="1.0" encoding="UTF-8"?>
<svg version="1.1" xmlns="http://www.w3.org/2000/svg" width="1024" height="839">
<path d="M0 0 C0.67945052 -0.0030531 1.35890103 -0.00610619 2.05894096 -0.00925181 C4.33881118 -0.01705392 6.61841644 -0.01061898 8.89828795 -0.00426924 C10.55511864 -0.00696227 12.21194809 -0.0105299 13.86877522 -0.01489371 C18.44113707 -0.02437369 23.01341948 -0.02134396 27.58578529 -0.01633817 C32.55284706 -0.01307865 37.51989158 -0.02134813 42.48694789 -0.02815652 C51.19890133 -0.03847802 59.91083253 -0.04129659 68.62279147 -0.03924429 C81.57770242 -0.0361999 94.53258869 -0.04450579 107.48749485 -0.05499355 C131.96864262 -0.07435814 156.44978355 -0.07996392 180.93093786 -0.08110766 C183.63168483 -0.08123715 186.33243179 -0.08137303 189.03317875 -0.08151448 C189.70336369 -0.08154849 190.37354863 -0.0815825 191.06404221 -0.08161754 C205.91135727 -0.08243424 220.75867063 -0.08681341 235.6059848 -0.09182617 C241.71843658 -0.09388286 247.83088838 -0.09586291 253.94334018 -0.09785867 C254.61870091 -0.09807985 255.29406163 -0.09830102 255.98988783 -0.09852891 C294.694632 -0.11117818 333.39937505 -0.11942701 372.10412139 -0.1185118 C373.55277647 -0.11848024 375.00143155 -0.11844877 376.45008663 -0.11841738 C382.99074011 -0.11827061 389.5313936 -0.11809427 396.07204708 -0.11790961 C398.98873046 -0.11782736 401.90541383 -0.11774707 404.82209721 -0.11766698 C406.28195019 -0.11762619 407.74180316 -0.11758415 409.20165614 -0.11754086 C455.36814338 -0.11618024 501.53459995 -0.13081677 547.70107859 -0.15862143 C559.33334073 -0.16562336 570.9656029 -0.17256223 582.59786528 -0.17915022 C583.31409146 -0.17955597 584.03031763 -0.17996172 584.76824763 -0.18037976 C606.83959591 -0.19280785 628.91094167 -0.20034051 650.98229331 -0.2028662 C651.67514848 -0.2029461 652.36800366 -0.203026 653.08185445 -0.20310832 C668.29099686 -0.2048148 683.50013912 -0.20533729 698.70928161 -0.20476757 C704.15125712 -0.2045746 709.59323264 -0.20447051 715.03520815 -0.20441011 C716.38905389 -0.20439428 717.74289963 -0.20437387 719.09674537 -0.20434886 C740.67656346 -0.2039961 762.25635531 -0.21539716 783.83616588 -0.2326565 C806.1727909 -0.25043033 828.50937459 -0.25360838 850.84600315 -0.24003224 C863.72831485 -0.23262513 876.61051155 -0.2363535 889.49281113 -0.25591692 C898.09107386 -0.26787415 906.68925288 -0.26537346 915.2875117 -0.25097592 C920.19102313 -0.24317686 925.09431126 -0.24176435 929.99780736 -0.25789063 C934.45768711 -0.27242998 938.91715725 -0.26859772 943.37701865 -0.25004289 C944.98132344 -0.24659691 946.58566015 -0.24986807 948.18993244 -0.26064531 C960.65093653 -0.33875732 969.69507763 1.67908714 979.05190867 10.25299966 C990.12132807 22.02272927 990.63976666 33.57959573 990.5694868 48.95612466 C990.57491318 50.95120634 990.58203872 52.94628401 990.59072703 54.94135416 C990.60890184 60.33805622 990.60191695 65.73445107 990.58921069 71.13115823 C990.57905273 76.7905953 990.58848412 82.45000683 990.59475535 88.10944498 C990.60202361 97.61177144 990.59246557 107.11397337 990.57339305 116.61628091 C990.55162597 127.58746322 990.55867791 138.55834815 990.58069867 149.52952325 C990.59887603 158.96507305 990.60139955 168.40053355 990.59094399 177.83609521 C990.58472193 183.46457418 990.58383801 189.09291356 990.59708995 194.72138345 C990.60868179 200.01405065 990.60056171 205.30633604 990.57751292 210.59896219 C990.57224364 212.53628282 990.57370893 214.47363583 990.58256358 216.41094339 C990.64146071 230.61095551 989.64382922 240.36303104 979.42300242 251.05378091 C972.56213098 257.41732395 965.5470713 260.50143513 956.10381734 260.50599933 C955.42436683 260.50905242 954.74491631 260.51210552 954.04487639 260.51525113 C951.76500616 260.52305325 949.48540091 260.5166183 947.20552939 260.51026857 C945.54869871 260.5129616 943.89186925 260.51652923 942.23504212 260.52089304 C937.66268028 260.53037301 933.09039787 260.52734329 928.51803205 260.52233749 C923.55097029 260.51907798 918.58392576 260.52734746 913.61686945 260.53415585 C904.90491602 260.54447735 896.19298482 260.54729591 887.48102587 260.54524362 C874.52611492 260.54219923 861.57122865 260.55050512 848.61632249 260.56099287 C824.13517472 260.58035746 799.65403379 260.58596324 775.17287948 260.58710699 C772.47213252 260.58723648 769.77138556 260.58737236 767.0706386 260.5875138 C766.40045366 260.58754781 765.73026871 260.58758182 765.03977514 260.58761686 C750.19246007 260.58843357 735.34514671 260.59281273 720.49783255 260.59782549 C714.38538077 260.59988219 708.27292896 260.60186224 702.16047716 260.60385799 C701.48511644 260.60407917 700.80975571 260.60430035 700.11392951 260.60452823 C661.40918534 260.6171775 622.70444229 260.62542634 583.99969596 260.62451112 C582.55104088 260.62447957 581.1023858 260.62444809 579.65373072 260.62441671 C573.11307723 260.62426994 566.57242375 260.6240936 560.03177027 260.62390894 C557.11508689 260.62382669 554.19840351 260.6237464 551.28172013 260.62366631 C549.82186716 260.62362552 548.36201418 260.62358348 546.90216121 260.62354019 C500.73567396 260.62217957 454.5692174 260.6368161 408.40273875 260.66462076 C396.77047661 260.67162269 385.13821444 260.67856156 373.50595206 260.68514955 C372.4316128 260.68575817 372.4316128 260.68575817 371.33556972 260.68637909 C349.26422144 260.69880718 327.19287567 260.70633984 305.12152404 260.70886552 C304.08224127 260.70898538 304.08224127 260.70898538 303.02196289 260.70910765 C287.81282048 260.71081412 272.60367823 260.71133662 257.39453573 260.7107669 C251.95256022 260.71057392 246.51058471 260.71046984 241.06860919 260.71040944 C239.71476345 260.71039361 238.36091771 260.7103732 237.00707198 260.71034819 C215.42725388 260.70999542 193.84746203 260.72139649 172.26765146 260.73865582 C149.93102644 260.75642966 127.59444276 260.7596077 105.25781419 260.74603157 C92.37550249 260.73862446 79.4933058 260.74235283 66.61100621 260.76191625 C58.01274348 260.77387348 49.41456446 260.77137279 40.81630565 260.75697525 C35.91279421 260.74917619 31.00950609 260.74776368 26.10600998 260.76388995 C21.64613023 260.7784293 17.1866601 260.77459705 12.72679869 260.75604222 C11.12249391 260.75259624 9.51815719 260.7558674 7.9138849 260.76664463 C-4.5370497 260.84469352 -13.60409262 258.83422297 -22.94809133 250.25299966 C-25.57204205 247.41484888 -27.90554149 244.53566904 -29.94809133 241.25299966 C-30.28370832 240.74667473 -30.61932531 240.2403498 -30.96511251 239.71868169 C-35.57488859 231.40057817 -34.50747263 221.78197734 -34.46566945 212.57160318 C-34.47109461 210.56681693 -34.47821948 208.56203467 -34.48690969 206.55725992 C-34.5051002 201.1295086 -34.49809276 195.7020624 -34.48539335 190.27430594 C-34.47524218 184.58416652 -34.48466503 178.89405262 -34.49093801 173.20391214 C-34.49820883 163.64853115 -34.48864211 154.09327395 -34.4695757 144.53791177 C-34.44781436 133.50483481 -34.45485537 122.47205363 -34.47688133 111.43898386 C-34.49505882 101.95249936 -34.49758195 92.46610369 -34.48712665 82.9796074 C-34.48090386 77.31981467 -34.48002256 71.66016076 -34.4932726 66.00037706 C-34.5048644 60.67735521 -34.49674443 55.35471299 -34.47369558 50.03173196 C-34.46842601 48.08312424 -34.46989209 46.13448433 -34.47874624 44.1858896 C-34.53744304 29.95086949 -33.56617303 20.17033225 -23.31918508 9.45221841 C-16.45831363 3.08867537 -9.44325396 0.0045642 0 0 Z " fill="#050609" transform="translate(33.94809132814407,288.74700033664703)"/>
<path d="M0 0 C-2.92581326 2.38978641 -6.03630989 4.11317205 -9.38085938 5.85253906 C-25.41998401 14.31382466 -36.74986854 25.65278122 -43.5 42.75 C-47.34140868 55.7147543 -45.76861951 69.04223879 -39.45703125 80.8984375 C-30.10485417 96.52106741 -15.12087872 106.41008347 2 112 C2.0548452 106.109092 2.05751122 100.22131309 2.01220703 94.33032227 C2.00410525 92.32739941 2.01016283 90.32436651 2.03076172 88.3215332 C2.05794315 85.43815538 2.03389614 82.55900915 2 79.67578125 C2.0194165 78.78288895 2.03883301 77.88999664 2.05883789 76.970047 C1.9801677 72.12651416 1.9801677 72.12651416 -0.74328613 68.32987976 C-4.44128763 65.96742931 -8.2494895 64.30916249 -12.5 63.1875 C-13.985 62.795625 -15.47 62.40375 -17 62 C-17 65.3 -17 68.6 -17 72 C-18.98 72.495 -18.98 72.495 -21 73 C-27.23848645 66.3356783 -32.5241345 59.00048618 -37.83398438 51.59570312 C-38.79491933 50.28065479 -39.80534662 49.00192085 -40.828125 47.734375 C-42 46 -42 46 -42 43 C-37.96496125 41.56586202 -33.92646914 40.14205235 -29.88452148 38.72753906 C-28.51114027 38.24531024 -27.13872715 37.76031478 -25.76733398 37.27246094 C-23.79140698 36.57010023 -21.81216654 35.87789338 -19.83203125 35.1875 C-18.64327393 34.76855469 -17.4545166 34.34960938 -16.22973633 33.91796875 C-13.27858126 33.0791795 -11.03885645 32.79958078 -8 33 C-7.1875 35.0625 -7.1875 35.0625 -7 38 C-8.41026293 40.54689275 -10.13976035 42.76642506 -12 45 C-10.88625 45.226875 -9.7725 45.45375 -8.625 45.6875 C-2.68196462 47.16797145 3.33877572 49.76030552 8.046875 53.72265625 C9.87897173 55.20083596 9.87897173 55.20083596 11.91015625 54.87109375 C14.53661371 53.77632737 16.96219563 52.46666018 19.4375 51.0625 C28.38083538 46 28.38083538 46 34 46 C33.62746094 45.39671875 33.25492187 44.7934375 32.87109375 44.171875 C32.39800781 43.37265625 31.92492187 42.5734375 31.4375 41.75 C30.96183594 40.96109375 30.48617187 40.1721875 29.99609375 39.359375 C28.86977849 36.69155375 28.9830687 35.65498232 30 33 C37.43838143 33.51832242 43.91133665 35.86834245 50.875 38.4375 C52.01453125 38.84548828 53.1540625 39.25347656 54.328125 39.67382812 C62.73350694 42.73350694 62.73350694 42.73350694 65 45 C58.01591122 54.67827138 51.0312621 64.35591241 44 74 C42.35 73.67 40.7 73.34 39 73 C39 69.37 39 65.74 39 62 C36.74698182 62.93072542 34.49776592 63.86924109 32.25 64.8125 C31.61578125 65.07353516 30.9815625 65.33457031 30.328125 65.60351562 C25.21045967 67.64610493 25.21045967 67.64610493 21 71 C20.36641724 74.002852 20.39499976 76.98269926 20.390625 80.04296875 C20.37408875 80.9265657 20.35755249 81.81016266 20.34051514 82.72053528 C20.29192715 85.54292678 20.27064059 88.36477912 20.25 91.1875 C20.2218493 93.10093874 20.19192314 95.01435225 20.16015625 96.92773438 C20.08616545 101.61844521 20.03665698 106.30885483 20 111 C21.42626694 110.7056707 22.85123329 110.40503519 24.27563477 110.10180664 C25.06929947 109.9350795 25.86296417 109.76835236 26.68067932 109.59657288 C36.78882709 106.99656726 45.84609453 99.24381093 53 92 C53.96873047 91.06414062 53.96873047 91.06414062 54.95703125 90.109375 C63.16719494 81.59513117 67.92289925 69.70137069 68.02734375 57.9140625 C67.27397608 41.64904765 60.55928594 28.60803403 48.87109375 17.41796875 C40.80584308 10.62560118 31.56455847 5.38559248 22 1 C26.82025123 -0.49919316 30.95518455 0.62194397 35.8125 1.5625 C36.74868164 1.74304932 37.68486328 1.92359863 38.64941406 2.10961914 C58.58624605 6.20031876 76.94563545 16.14519421 90 32 C97.29354783 43.19870303 100.75509057 55.20098539 98.3125 68.4375 C94.61658787 83.11919232 84.57974078 94.101093 72 102 C64.96042975 105.85759732 57.76484506 108.94196808 50 111 C52.93459813 114.12890791 55.98572943 116.47199751 59.5703125 118.8203125 C60.63121094 119.52027344 61.69210938 120.22023438 62.78515625 120.94140625 C63.88730469 121.66199219 64.98945313 122.38257813 66.125 123.125 C68.31709785 124.56211934 70.50658676 126.00304621 72.6953125 127.4453125 C73.66484863 128.07969238 74.63438477 128.71407227 75.63330078 129.36767578 C78 131 78 131 80 133 C80.22705078 135.06298828 80.22705078 135.06298828 80.1953125 137.5703125 C80.18564453 138.91416016 80.18564453 138.91416016 80.17578125 140.28515625 C80.15064453 141.69087891 80.15064453 141.69087891 80.125 143.125 C80.11597656 144.06988281 80.10695312 145.01476562 80.09765625 145.98828125 C80.07404522 148.32577292 80.04111516 150.66276123 80 153 C76.0719491 151.5884681 72.87988404 149.72612488 69.4375 147.375 C68.50808594 146.74335938 67.57867187 146.11171875 66.62109375 145.4609375 C66.07880127 145.09073486 65.53650879 144.72053223 64.9777832 144.33911133 C62.49785844 142.66001155 60.00243472 141.00484126 57.5078125 139.34765625 C52.92085728 136.29371817 48.3575177 133.20790731 43.80859375 130.09765625 C42.5852868 129.26236928 41.36197951 128.42708283 40.13867188 127.59179688 C38.26793275 126.31414032 36.39798461 125.03538596 34.5300293 123.75366211 C32.68758329 122.49007431 30.84213473 121.23098399 28.99609375 119.97265625 C27.37465454 118.86289429 27.37465454 118.86289429 25.72045898 117.73071289 C23.06512557 115.88703537 23.06512557 115.88703537 20 115 C20 127.21 20 139.42 20 152 C14.39 152 8.78 152 3 152 C2 151 2 151 1.88647461 147.58178711 C1.88663372 146.06363012 1.89232774 144.54546771 1.90234375 143.02734375 C1.9037587 142.22970108 1.90517365 141.43205841 1.90663147 140.61024475 C1.91224684 138.05262565 1.92480188 135.49509282 1.9375 132.9375 C1.94251302 131.20768355 1.94707627 129.47786574 1.95117188 127.74804688 C1.96222125 123.49866447 1.97949614 119.24934688 2 115 C-4.90913012 119.34615752 -11.72260534 123.79734917 -18.4375 128.4375 C-24.57258049 132.65720608 -30.72839607 136.83530905 -36.9375 140.9453125 C-39.38815988 142.58950522 -41.82254472 144.25169831 -44.25 145.9296875 C-44.98452393 146.43741699 -45.71904785 146.94514648 -46.47583008 147.46826172 C-47.93027329 148.4755668 -49.3832801 149.48494963 -50.8347168 150.49658203 C-55.8912795 154 -55.8912795 154 -57 154 C-57.23373107 150.62618193 -57.37483519 147.25444999 -57.5 143.875 C-57.60054687 142.44800781 -57.60054687 142.44800781 -57.703125 140.9921875 C-57.89448413 134.10325895 -57.89448413 134.10325895 -55.58789062 131.25830078 C-53.47532314 129.65107767 -51.29356871 128.33641366 -49 127 C-47.12835058 125.72121871 -45.26413962 124.43150387 -43.40625 123.1328125 C-41.43880684 121.79495115 -39.47003612 120.4590402 -37.5 119.125 C-36.48679688 118.43664062 -35.47359375 117.74828125 -34.4296875 117.0390625 C-31.95428393 115.3576563 -29.47770493 113.67801224 -27 112 C-27.51796143 111.79431396 -28.03592285 111.58862793 -28.56958008 111.37670898 C-48.0379114 103.58375914 -65.11329104 94.84255449 -74.02734375 74.67578125 C-77.72566724 64.36478719 -77.44577246 52.01982807 -73 42 C-67.79266544 31.40173896 -59.89890158 22.42900192 -50 16 C-49.15179688 15.43667969 -48.30359375 14.87335938 -47.4296875 14.29296875 C-33.83086823 5.78907496 -16.19360854 -0.44231404 0 0 Z " fill="#FEFEFE" transform="translate(130,338)"/>
<path d="M0 0 C0.65886208 -0.00297112 1.31772416 -0.00594224 1.99655175 -0.0090034 C4.22055313 -0.01772586 6.4445009 -0.01920163 8.66851807 -0.02069092 C10.25659298 -0.02531668 11.84466677 -0.03034101 13.43273926 -0.03573608 C17.75932363 -0.04888754 22.08589246 -0.05531065 26.41249371 -0.05974674 C29.1139694 -0.06267373 31.81544082 -0.06677787 34.51691437 -0.07125092 C42.96432214 -0.08493458 51.41172016 -0.09459634 59.85913825 -0.09845281 C69.61900675 -0.10293247 79.37873512 -0.12047244 89.13856101 -0.1494534 C96.67575486 -0.17105921 104.21290926 -0.18115654 111.75013375 -0.18249393 C116.25461724 -0.18354297 120.75896916 -0.18947153 125.2634201 -0.20731354 C129.50200538 -0.22377469 133.74035994 -0.2259593 137.97896576 -0.21717453 C139.53460304 -0.21640304 141.09025261 -0.22076166 142.64585876 -0.23063278 C144.77036623 -0.24332279 146.89405302 -0.23749227 149.01855469 -0.22705078 C150.20729061 -0.22851734 151.39602654 -0.2299839 152.62078476 -0.2314949 C156.87065508 0.27151332 159.42207643 1.92822513 162.55084229 4.75616455 C164.45388581 8.49863798 164.19100368 12.14919123 164.16168213 16.28887939 C164.1659874 17.62410141 164.1659874 17.62410141 164.17037964 18.98629761 C164.17241892 20.86743812 164.16689858 22.74859989 164.15435791 24.62969971 C164.13834006 27.49835093 164.15419146 30.36558516 164.17340088 33.23419189 C164.17141768 35.06492415 164.16757242 36.89565554 164.16168213 38.72637939 C164.16775482 39.57968842 164.17382751 40.43299744 164.18008423 41.31216431 C164.12199233 46.27261883 163.71525126 49.95151143 160.76324463 54.14044189 C156.83353948 56.18421507 153.47899817 56.39722413 149.09016418 56.41459656 C148.43267353 56.41983324 147.77518287 56.42506992 147.09776825 56.43046528 C144.90229522 56.44542542 142.70705607 56.44616953 140.51153564 56.44683838 C138.93434253 56.45446242 137.35715314 56.46289034 135.77996826 56.47206116 C131.50106512 56.49398555 127.22223342 56.50280197 122.94328046 56.5078876 C120.26924052 56.5115328 117.59521926 56.51777362 114.92118645 56.52488899 C105.59045465 56.54937374 96.25977839 56.56243384 86.92901611 56.565979 C78.23393182 56.56961628 69.53920006 56.59952779 60.84422356 56.64138359 C53.3757133 56.67607413 45.90731999 56.69152721 38.4387297 56.69222504 C33.97945297 56.6930181 29.52053566 56.70177056 25.06134224 56.7302227 C20.86770899 56.75638326 16.67473377 56.7586202 12.48105621 56.74256706 C10.9435654 56.7407511 9.40603691 56.74745674 7.86862755 56.76338577 C-5.19395675 56.89045877 -5.19395675 56.89045877 -9.13557434 53.79048157 C-11.75382077 50.48831159 -12.35696742 48.11637549 -12.42962646 44.02374268 C-12.44568939 43.19923615 -12.46175232 42.37472961 -12.478302 41.52523804 C-12.52288966 37.7649839 -12.56379803 34.00490246 -12.58685303 30.2444458 C-12.60342565 28.26190462 -12.63073286 26.27942351 -12.66888428 24.29718018 C-12.72366585 21.43472391 -12.74552642 18.5736643 -12.76019287 15.71075439 C-12.78286224 14.82727325 -12.80553162 13.94379211 -12.82888794 13.03353882 C-12.81332948 8.49810949 -12.72599904 6.74167294 -9.76654053 3.10479736 C-8.93171143 2.45656006 -8.09688232 1.80832275 -7.23675537 1.14044189 C-5.40159579 -0.69471768 -2.46053574 0.006165 0 0 Z " fill="#C6FD2D" transform="translate(274.23675537109375,433.85955810546875)"/>
<path d="M0 0 C5.86002034 3.32570286 9.03596334 7.82192668 12 13.75 C13.73405496 22.7670858 13.19099772 30.92398448 8.625 39 C4.70229857 43.74853331 0.22472118 47.64383539 -5.99609375 48.49609375 C-20.87654144 48.26763242 -20.87654144 48.26763242 -26.26953125 43.23046875 C-33.03977662 36.01898539 -33.84036171 29.49926389 -33.6875 19.7734375 C-33.14794597 13.25832256 -31.49331838 7.51706561 -26.5 3.0625 C-25.46875 2.381875 -24.4375 1.70125 -23.375 1 C-22.50875 0.401875 -21.6425 -0.19625 -20.75 -0.8125 C-13.77873635 -3.26535203 -6.75741729 -3.02144338 0 0 Z " fill="#F1F3F5" transform="translate(662.375,361)"/>
<path d="M0 0 C26.72727273 0 26.72727273 0 33.9375 5.0625 C36.52638403 8.74969846 36.71427515 11.18744385 36.49609375 15.6171875 C35.73397323 19.27776637 34.00433911 20.90394946 31 23 C30.01 23 29.02 23 28 23 C28 23.66 28 24.32 28 25 C29.36125 25.0928125 29.36125 25.0928125 30.75 25.1875 C34 26 34 26 36.375 27.9375 C38.71103314 32.340024 38.7511109 36.11777915 38 41 C36.16022138 45.21615933 34.80084551 46.60146603 30.6875 48.6484375 C24.77456772 50.74338564 18.69005569 50.31911245 12.5 50.1875 C8.375 50.125625 4.25 50.06375 0 50 C0 33.5 0 17 0 0 Z " fill="#EEF0F2" transform="translate(472,359)"/>
<path d="M0 0 C5.83698681 5.47217514 10.71214406 11.79577936 15.375 18.28125 C15.96909668 19.1000061 15.96909668 19.1000061 16.57519531 19.93530273 C17.69998007 21.49321844 18.81125809 23.060859 19.921875 24.62890625 C21.94314436 27.38934166 21.94314436 27.38934166 26 28 C26.33 24.7 26.66 21.4 27 18 C33.9593337 18.45386959 40.99720822 20.99720822 46 26 C46.24050903 27.83499146 46.24050903 27.83499146 46.22705078 30.08251953 C46.22689972 30.92324005 46.22674866 31.76396057 46.22659302 32.63015747 C46.21627045 33.53853363 46.20594788 34.44690979 46.1953125 35.3828125 C46.1924826 36.31221649 46.18965271 37.24162048 46.18673706 38.19918823 C46.17552069 41.1745885 46.1504136 44.14969035 46.125 47.125 C46.11497208 49.13931858 46.1058459 51.15364186 46.09765625 53.16796875 C46.07557661 58.11209456 46.04103693 63.05599665 46 68 C30.48579463 65.64033833 15.44450462 54.08663907 6.25 41.62890625 C-1.17753234 30.02338697 -3.20077797 18.52969602 -2 5 C-0.9765625 1.99609375 -0.9765625 1.99609375 0 0 Z " fill="#020202" transform="translate(86,382)"/>
<path d="M0 0 C4.0151955 12.04558649 1.09880435 23.33940344 -4.17578125 34.484375 C-11.69833846 48.4199677 -24.72553449 57.84990859 -38.83203125 64.37109375 C-41.59775433 65.17340261 -44.13320667 65.03933808 -47 65 C-47.22307809 59.41351453 -47.38605356 53.82963649 -47.49438477 48.23974609 C-47.53955043 46.34019813 -47.60090169 44.44096146 -47.67895508 42.54248047 C-48.31175791 26.75136137 -48.31175791 26.75136137 -45.09277344 22.45361328 C-42.74548092 20.86969526 -40.67660203 19.89622508 -38 19 C-36.70760717 18.37650297 -35.41586132 17.75166166 -34.125 17.125 C-31 16 -31 16 -28 16 C-27.67 19.63 -27.34 23.26 -27 27 C-25.68 27 -24.36 27 -23 27 C-21.21743962 24.92337779 -19.74723344 22.95633722 -18.25 20.6875 C-17.36885244 19.4046986 -16.48733705 18.12214978 -15.60546875 16.83984375 C-15.16895996 16.19515137 -14.73245117 15.55045898 -14.28271484 14.88623047 C-12.4173101 12.14315527 -10.49810556 9.44410534 -8.5625 6.75 C-7.94503906 5.87859375 -7.32757813 5.0071875 -6.69140625 4.109375 C-4.75004436 1.68827703 -3.2469026 0 0 0 Z " fill="#030303" transform="translate(197,384)"/>
<path d="M0 0 C27.2 0 27.2 0 35 6.5 C38.38189805 10.97872985 37.65987235 16.70651853 37 22 C35.8125 25.625 35.8125 25.625 34 28 C32.35663341 28.72219698 30.69066619 29.39678358 29 30 C29.30292969 30.5347998 29.60585938 31.06959961 29.91796875 31.62060547 C31.28305207 34.03627792 32.6415932 36.45556735 34 38.875 C34.47695313 39.71675781 34.95390625 40.55851562 35.4453125 41.42578125 C35.89648438 42.23144531 36.34765625 43.03710938 36.8125 43.8671875 C37.23144531 44.61081543 37.65039062 45.35444336 38.08203125 46.12060547 C39 48 39 48 39 50 C35.04 50 31.08 50 27 50 C26.5153125 48.85660156 26.030625 47.71320313 25.53125 46.53515625 C24.85579723 45.04353139 24.178623 43.55268522 23.5 42.0625 C23.18546875 41.30775391 22.8709375 40.55300781 22.546875 39.77539062 C22.21171875 39.05673828 21.8765625 38.33808594 21.53125 37.59765625 C21.23798828 36.93258057 20.94472656 36.26750488 20.64257812 35.58227539 C18.4094396 33.11493189 18.4094396 33.11493189 11 33 C11 38.61 11 44.22 11 50 C7.37 50 3.74 50 0 50 C0 33.5 0 17 0 0 Z " fill="#EEF0F2" transform="translate(379,359)"/>
<path d="M0 0 C10 0 10 0 12.32519531 1.78491211 C12.82116211 2.60741455 13.31712891 3.42991699 13.828125 4.27734375 C14.40046875 5.18419922 14.9728125 6.09105469 15.5625 7.02539062 C16.119375 7.98638672 16.67625 8.94738281 17.25 9.9375 C17.82234375 10.86369141 18.3946875 11.78988281 18.984375 12.74414062 C20.0703916 14.50274706 21.1417832 16.27054579 22.19238281 18.05053711 C24.67862396 22.10730093 27.36072692 26.04109038 30 30 C30.33 20.1 30.66 10.2 31 0 C34.63 0 38.26 0 42 0 C42 16.5 42 33 42 50 C32 50 32 50 29.7824707 48.41455078 C29.33476318 47.68220215 28.88705566 46.94985352 28.42578125 46.1953125 C27.90306641 45.38320313 27.38035156 44.57109375 26.84179688 43.734375 C26.33712891 42.87328125 25.83246094 42.0121875 25.3125 41.125 C24.26762238 39.46050083 23.22204675 37.79643963 22.17578125 36.1328125 C21.12777344 34.43898438 20.07976563 32.74515625 19 31 C16.69 27.7 14.38 24.4 12 21 C11.67 30.57 11.34 40.14 11 50 C7.37 50 3.74 50 0 50 C0 33.5 0 17 0 0 Z " fill="#ECEEF0" transform="translate(685,359)"/>
<path d="M0 0 C4.95 0 9.9 0 15 0 C17.12197807 6.17333853 19.23978525 12.3480861 21.35375977 18.52416992 C22.0733206 20.62449651 22.79401459 22.72443524 23.51586914 24.82397461 C24.55393686 27.84387293 25.587906 30.86514792 26.62109375 33.88671875 C26.94403915 34.82335861 27.26698456 35.75999847 27.59971619 36.72502136 C27.89995193 37.60555679 28.20018768 38.48609222 28.50952148 39.39331055 C28.77377426 40.16386276 29.03802704 40.93441498 29.31028748 41.72831726 C30.03323396 44.10946156 30.51197022 46.55985108 31 49 C27.37 49 23.74 49 20 49 C17 41.375 17 41.375 17 38 C10.73 38 4.46 38 -2 38 C-2.99 41.63 -3.98 45.26 -5 49 C-8.63 49 -12.26 49 -16 49 C-14.68863329 42.58105692 -12.94416644 36.53626758 -10.7421875 30.37109375 C-10.43427277 29.49598648 -10.12635803 28.62087921 -9.80911255 27.71925354 C-8.83592261 24.95692936 -7.85559529 22.19720289 -6.875 19.4375 C-6.2091596 17.55160022 -5.54379051 15.66553396 -4.87890625 13.77929688 C-3.25804319 9.18425656 -1.63077929 4.59152991 0 0 Z " fill="#F1F3F5" transform="translate(320,360)"/>
<path d="M0 0 C11.22 0 22.44 0 34 0 C34 2.97 34 5.94 34 9 C26.41 9 18.82 9 11 9 C11 12.96 11 16.92 11 21 C17.93 21 24.86 21 32 21 C32 23.97 32 26.94 32 30 C25.07 30 18.14 30 11 30 C11 33.63 11 37.26 11 41 C18.59 41 26.18 41 34 41 C34 43.97 34 46.94 34 50 C22.78 50 11.56 50 0 50 C0 33.5 0 17 0 0 Z " fill="#EAECEE" transform="translate(520,359)"/>
<path d="M0 0 C11.22 0 22.44 0 34 0 C34 2.97 34 5.94 34 9 C26.41 9 18.82 9 11 9 C11 12.96 11 16.92 11 21 C17.93 21 24.86 21 32 21 C32 23.97 32 26.94 32 30 C25.07 30 18.14 30 11 30 C11 33.63 11 37.26 11 41 C18.59 41 26.18 41 34 41 C34 43.97 34 46.94 34 50 C22.78 50 11.56 50 0 50 C0 33.5 0 17 0 0 Z " fill="#EAECEE" transform="translate(427,359)"/>
<path d="M0 0 C3.63 0 7.26 0 11 0 C11 13.53 11 27.06 11 41 C17.93 41 24.86 41 32 41 C32 43.97 32 46.94 32 50 C21.44 50 10.88 50 0 50 C0 33.5 0 17 0 0 Z " fill="#EBECEF" transform="translate(565,359)"/>
<path d="M0 0 C3.63 0 7.26 0 11 0 C11 13.53 11 27.06 11 41 C17.93 41 24.86 41 32 41 C32 43.97 32 46.94 32 50 C21.44 50 10.88 50 0 50 C0 33.5 0 17 0 0 Z " fill="#EBECEF" transform="translate(264,359)"/>
<path d="M0 0 C4.36652121 2.09928904 6.85880357 4.30626467 8.53125 8.9453125 C10.09330864 15.79233622 9.51542729 21.93891846 6 28 C3.71411422 30.70150138 2.1245453 31.80362141 -1.37109375 32.4140625 C-5.87126306 32.66815824 -8.25627987 32.52680176 -12 29.875 C-16.26826541 23.73936848 -17.02675972 17.33251642 -16 10 C-14.43910839 6.15062987 -12.63889662 2.99574396 -9.0390625 0.80859375 C-5.86193445 -0.45130186 -3.38404214 -0.35007332 0 0 Z " fill="#0A0B0E" transform="translate(655,368)"/>
<path d="M0 0 C3.63 0 7.26 0 11 0 C11 16.5 11 33 11 50 C7.37 50 3.74 50 0 50 C0 33.5 0 17 0 0 Z " fill="#E9EBED" transform="translate(607,359)"/>
<path d="M0 0 C14 0 14 0 19 3 C20 4 20 4 20.1875 7.375 C20 11 20 11 18 14 C18.66 14.556875 19.32 15.11375 20 15.6875 C22 18 22 18 22.5 20.5 C21.84421222 23.77893891 20.58147134 24.93482293 18 27 C14.37918537 28.20693821 11.0749281 28.10782079 7.3125 28.0625 C3.6928125 28.0315625 3.6928125 28.0315625 0 28 C0 18.76 0 9.52 0 0 Z " fill="#11150C" transform="translate(359,447)"/>
<path d="M0 0 C2.64 0 5.28 0 8 0 C17 23.73786408 17 23.73786408 17 28 C15.02 28 13.04 28 11 28 C10.67 26.02 10.34 24.04 10 22 C6.37 22.33 2.74 22.66 -1 23 C-1.99 25.475 -1.99 25.475 -3 28 C-4.98 28 -6.96 28 -9 28 C-6.64500307 18.43540722 -3.35051831 9.24916544 0 0 Z " fill="#10140C" transform="translate(332,447)"/>
<path d="M0 0 C2.93847653 -0.107834 5.87301151 -0.18721916 8.8125 -0.25 C9.64587891 -0.28351563 10.47925781 -0.31703125 11.33789062 -0.3515625 C13.62620111 -0.38832251 15.74321261 -0.38495793 18 0 C20.07421875 2.015625 20.07421875 2.015625 21 4 C21.99 2.68 22.98 1.36 24 0 C25.32 0.33 26.64 0.66 28 1 C27.29875 1.886875 26.5975 2.77375 25.875 3.6875 C23.63152584 6.77424074 23.63152584 6.77424074 24.625 9.625 C25.305625 10.800625 25.305625 10.800625 26 12 C26.556875 13.1446875 26.556875 13.1446875 27.125 14.3125 C27.41375 14.869375 27.7025 15.42625 28 16 C25.525 15.505 25.525 15.505 23 15 C22.67 13.68 22.34 12.36 22 11 C21.34 11 20.68 11 20 11 C19.34 12.65 18.68 14.3 18 16 C12.06 16 6.12 16 0 16 C0 10.72 0 5.44 0 0 Z " fill="#111216" transform="translate(952,457)"/>
<path d="M0 0 C2.63268208 1.40767899 3.94272394 2.73172127 6 5 C6 5.99 6 6.98 6 8 C4.02 8 2.04 8 0 8 C0 7.34 0 6.68 0 6 C-2.31 6 -4.62 6 -7 6 C-7 7.32 -7 8.64 -7 10 C-6.22914063 10.25394531 -5.45828125 10.50789063 -4.6640625 10.76953125 C-3.66117187 11.11371094 -2.65828125 11.45789063 -1.625 11.8125 C-0.12839844 12.31716797 -0.12839844 12.31716797 1.3984375 12.83203125 C4 14 4 14 6 17 C6.51451424 21.04261188 6.65485184 23.11933718 4.1875 26.4375 C-0.52491847 28.74750905 -4.85185727 28.90304753 -10 28 C-13.1875 25.75 -13.1875 25.75 -15 23 C-15 21.68 -15 20.36 -15 19 C-12.625 18.8125 -12.625 18.8125 -10 19 C-9.34 19.99 -8.68 20.98 -8 22 C-4.41642759 22.25015873 -4.41642759 22.25015873 -1 22 C-0.67 20.68 -0.34 19.36 0 18 C-0.74765625 17.82984375 -1.4953125 17.6596875 -2.265625 17.484375 C-3.25046875 17.24203125 -4.2353125 16.9996875 -5.25 16.75 C-6.22453125 16.51796875 -7.1990625 16.2859375 -8.203125 16.046875 C-11.37679103 14.85896649 -12.9240128 13.66278643 -15 11 C-15.07399106 6.85650059 -14.64073669 4.78089784 -12 1.5625 C-7.90006053 -0.57288514 -4.53025218 -0.93784168 0 0 Z " fill="#10140C" transform="translate(406,447)"/>
<path d="M0 0 C1.98 0 3.96 0 6 0 C6 7.59 6 15.18 6 23 C9.96 23 13.92 23 18 23 C18 24.65 18 26.3 18 28 C12.06 28 6.12 28 0 28 C0 18.76 0 9.52 0 0 Z " fill="#13170C" transform="translate(295,447)"/>
<path d="M0 0 C10.04634878 -0.60520173 10.04634878 -0.60520173 14.25 2.0625 C16 5 16 5 16.125 8.625 C15 12 15 12 13.0625 13.9375 C8.60129114 15.48526634 4.71144874 15.18845795 0 15 C0 10.05 0 5.1 0 0 Z " fill="#0B0C0F" transform="translate(390,368)"/>
<path d="M0 0 C3.5 0.5625 3.5 0.5625 5.9375 2.125 C8.9861548 6.88090149 7.53255327 12.27066449 6.5 17.5625 C-2.52740799 17.37299334 -2.52740799 17.37299334 -6.125 14.375 C-7.76122201 11.02818226 -8.11304266 9.24075595 -7.5 5.5625 C-5.39039736 1.68083115 -4.40778028 0.70839326 0 0 Z " fill="#9DA7BA" transform="translate(480.5,456.4375)"/>
<path d="M0 0 C8.12604043 -0.60642093 8.12604043 -0.60642093 12.0625 2.125 C14 5 14 5 14.625 8 C13.75445216 12.17862962 12.50368509 13.56887157 9 16 C5.87327402 16.41306246 3.17628148 16.23703593 0 16 C0 10.72 0 5.44 0 0 Z " fill="#96A0B2" transform="translate(805,457)"/>
<path d="M0 0 C8.12604043 -0.60642093 8.12604043 -0.60642093 12.0625 2.125 C14 5 14 5 14.625 8 C13.75445216 12.17862962 12.50368509 13.56887157 9 16 C5.87327402 16.41306246 3.17628148 16.23703593 0 16 C0 10.72 0 5.44 0 0 Z " fill="#96A0B2" transform="translate(606,457)"/>
<path d="M0 0 C9.99635036 -0.36131387 9.99635036 -0.36131387 14.125 1.125 C16 3 16 3 17.0625 5.9375 C17 9 17 9 15.41796875 11.17578125 C10.8968095 14.58673662 5.44834899 13.21793396 0 13 C0 8.71 0 4.42 0 0 Z " fill="#0E0F12" transform="translate(483,387)"/>
<path d="M0 0 C3.5 0.5625 3.5 0.5625 5.9375 2.125 C8.11348954 5.51954368 8.05627159 7.5990649 7.5 11.5625 C5.9375 14.5 5.9375 14.5 3.5 16.5625 C0 17.1875 0 17.1875 -3.5 16.5625 C-6.43307135 14.00546344 -7.36097012 12.39667929 -8 8.5625 C-7.12367712 3.30456271 -5.34643744 0.85924887 0 0 Z " fill="#9DA8BB" transform="translate(571.5,456.4375)"/>
<path d="M0 0 C8.625 -0.25 8.625 -0.25 12 2 C11.79375 2.94875 11.5875 3.8975 11.375 4.875 C11.25125 5.90625 11.1275 6.9375 11 8 C11.66 8.66 12.32 9.32 13 10 C12.63318342 12.93453261 12.13562754 13.86437246 10 16 C7.6171875 16.1953125 7.6171875 16.1953125 4.875 16.125 C3.26625 16.08375 1.6575 16.0425 0 16 C0 10.72 0 5.44 0 0 Z " fill="#98A2B5" transform="translate(749,457)"/>
<path d="M0 0 C1.32 0.33 2.64 0.66 4 1 C4.66 3.31 5.32 5.62 6 8 C6.99 5.36 7.98 2.72 9 0 C10.32 0.33 11.64 0.66 13 1 C13.33 3.97 13.66 6.94 14 10 C14.66 10 15.32 10 16 10 C16.33 6.7 16.66 3.4 17 0 C18.32 0 19.64 0 21 0 C20.27275406 5.52706913 18.66554027 10.69960141 17 16 C15.68 16 14.36 16 13 16 C12.01 13.36 11.02 10.72 10 8 C9.01 10.64 8.02 13.28 7 16 C6.01 16 5.02 16 4 16 C3.32815382 13.89748139 2.66269032 11.79292237 2 9.6875 C1.443125 7.92986328 1.443125 7.92986328 0.875 6.13671875 C0 3 0 3 0 0 Z " fill="#9AA4B7" transform="translate(829,457)"/>
<path d="M0 0 C11.25 -0.40178571 11.25 -0.40178571 15 3 C14.6875 6.375 14.6875 6.375 14 10 C9.43362969 13.04424687 5.43284541 12.12783166 0 12 C0 8.04 0 4.08 0 0 Z " fill="#0B0C0F" transform="translate(483,368)"/>
<path d="M0 0 C1.32 0 2.64 0 4 0 C5.484375 1.53125 5.484375 1.53125 6.75 3.5 C7.39195312 4.47453125 7.39195312 4.47453125 8.046875 5.46875 C8.36140625 5.9740625 8.6759375 6.479375 9 7 C9.33 4.69 9.66 2.38 10 0 C11.32 0 12.64 0 14 0 C14 5.28 14 10.56 14 16 C12.68 16 11.36 16 10 16 C8.515625 14.25 8.515625 14.25 7.25 12 C6.82203125 11.2575 6.3940625 10.515 5.953125 9.75 C5.48132813 8.88375 5.48132813 8.88375 5 8 C4.67 10.64 4.34 13.28 4 16 C2.68 16 1.36 16 0 16 C0 10.72 0 5.44 0 0 Z " fill="#939DAF" transform="translate(934,457)"/>
<path d="M0 0 C1.32 0 2.64 0 4 0 C5.484375 1.53125 5.484375 1.53125 6.75 3.5 C7.39195312 4.47453125 7.39195312 4.47453125 8.046875 5.46875 C8.36140625 5.9740625 8.6759375 6.479375 9 7 C9.33 4.69 9.66 2.38 10 0 C11.32 0 12.64 0 14 0 C14 5.28 14 10.56 14 16 C12.68 16 11.36 16 10 16 C8.515625 14.25 8.515625 14.25 7.25 12 C6.82203125 11.2575 6.3940625 10.515 5.953125 9.75 C5.48132813 8.88375 5.48132813 8.88375 5 8 C4.67 10.64 4.34 13.28 4 16 C2.68 16 1.36 16 0 16 C0 10.72 0 5.44 0 0 Z " fill="#939DAF" transform="translate(582,457)"/>
<path d="M0 0 C1.65 0 3.3 0 5 0 C5.83719383 2.29032311 6.6698929 4.58210957 7.5 6.875 C7.73847656 7.52597656 7.97695313 8.17695313 8.22265625 8.84765625 C10 13.7734375 10 13.7734375 10 16 C8.68 16 7.36 16 6 16 C5.67 15.01 5.34 14.02 5 13 C2.03 12.505 2.03 12.505 -1 12 C-1.33 13.32 -1.66 14.64 -2 16 C-2.99 16 -3.98 16 -5 16 C-3.90301833 10.30860098 -2.45946923 5.25432063 0 0 Z " fill="#9099AB" transform="translate(876,457)"/>
<path d="M0 0 C1.32 0 2.64 0 4 0 C4.33 3.96 4.66 7.92 5 12 C6.32 12 7.64 12 9 12 C9.33 8.04 9.66 4.08 10 0 C11.32 0 12.64 0 14 0 C14.1080023 2.10304477 14.18558987 4.20766909 14.25 6.3125 C14.29640625 7.48425781 14.3428125 8.65601563 14.390625 9.86328125 C14 13 14 13 12.171875 14.890625 C9.20073738 16.40825645 7.29286295 16.48020918 4 16 C1.828125 14.36328125 1.828125 14.36328125 0 12 C-0.390625 8.984375 -0.390625 8.984375 -0.25 5.75 C-0.21390625 4.67234375 -0.1778125 3.5946875 -0.140625 2.484375 C-0.09421875 1.66453125 -0.0478125 0.8446875 0 0 Z " fill="#929BAD" transform="translate(766,457)"/>
<path d="M0 0 C1.32 0 2.64 0 4 0 C4.33 3.96 4.66 7.92 5 12 C6.32 12 7.64 12 9 12 C9.33 8.04 9.66 4.08 10 0 C11.32 0 12.64 0 14 0 C14.1080023 2.10304477 14.18558987 4.20766909 14.25 6.3125 C14.29640625 7.48425781 14.3428125 8.65601563 14.390625 9.86328125 C14 13 14 13 12.171875 14.890625 C9.20073738 16.40825645 7.29286295 16.48020918 4 16 C1.828125 14.36328125 1.828125 14.36328125 0 12 C-0.390625 8.984375 -0.390625 8.984375 -0.25 5.75 C-0.21390625 4.67234375 -0.1778125 3.5946875 -0.140625 2.484375 C-0.09421875 1.66453125 -0.0478125 0.8446875 0 0 Z " fill="#929BAD" transform="translate(671,457)"/>
<path d="M0 0 C1.65 0 3.3 0 5 0 C5.83719383 2.29032311 6.6698929 4.58210957 7.5 6.875 C7.73847656 7.52597656 7.97695313 8.17695313 8.22265625 8.84765625 C10 13.7734375 10 13.7734375 10 16 C8.68 16 7.36 16 6 16 C5.67 15.01 5.34 14.02 5 13 C2.03 12.505 2.03 12.505 -1 12 C-1.33 13.32 -1.66 14.64 -2 16 C-2.99 16 -3.98 16 -5 16 C-3.90301833 10.30860098 -2.45946923 5.25432063 0 0 Z " fill="#9099AB" transform="translate(658,457)"/>
<path d="M0 0 C1.32 0 2.64 0 4 0 C4.33 3.96 4.66 7.92 5 12 C6.32 12 7.64 12 9 12 C9.33 8.04 9.66 4.08 10 0 C11.32 0 12.64 0 14 0 C14.1080023 2.10304477 14.18558987 4.20766909 14.25 6.3125 C14.29640625 7.48425781 14.3428125 8.65601563 14.390625 9.86328125 C14 13 14 13 12.171875 14.890625 C9.20073738 16.40825645 7.29286295 16.48020918 4 16 C1.828125 14.36328125 1.828125 14.36328125 0 12 C-0.390625 8.984375 -0.390625 8.984375 -0.25 5.75 C-0.21390625 4.67234375 -0.1778125 3.5946875 -0.140625 2.484375 C-0.09421875 1.66453125 -0.0478125 0.8446875 0 0 Z " fill="#929BAD" transform="translate(492,457)"/>
<path d="M0 0 C2.72863567 2.72863567 3.47085394 5.91006895 4.625 9.5 C4.85445313 10.18964844 5.08390625 10.87929688 5.3203125 11.58984375 C7 16.71888951 7 16.71888951 7 19 C2.71 19 -1.58 19 -6 19 C-4.29446483 12.50272314 -2.47390635 6.2436684 0 0 Z " fill="#1F2023" transform="translate(327,371)"/>
<path d="M0 0 C1.32 0 2.64 0 4 0 C4 2.31 4 4.62 4 7 C6.31 7 8.62 7 11 7 C11 4.69 11 2.38 11 0 C11.99 0 12.98 0 14 0 C14 5.28 14 10.56 14 16 C13.01 16 12.02 16 11 16 C11 13.69 11 11.38 11 9 C8.69 9 6.38 9 4 9 C4 11.31 4 13.62 4 16 C2.68 16 1.36 16 0 16 C0 10.72 0 5.44 0 0 Z " fill="#9BA6B8" transform="translate(854,457)"/>
<path d="M0 0 C3.63 0 7.26 0 11 0 C11 0.99 11 1.98 11 3 C8.69 3 6.38 3 4 3 C4 4.32 4 5.64 4 7 C5.98 7 7.96 7 10 7 C10 7.66 10 8.32 10 9 C8.02 9 6.04 9 4 9 C4 10.32 4 11.64 4 13 C6.31 13 8.62 13 11 13 C11 13.99 11 14.98 11 16 C7.37 16 3.74 16 0 16 C0 10.72 0 5.44 0 0 Z " fill="#98A3B5" transform="translate(952,457)"/>
<path d="M0 0 C3.63 0 7.26 0 11 0 C11 0.99 11 1.98 11 3 C8.69 3 6.38 3 4 3 C4 4.32 4 5.64 4 7 C5.98 7 7.96 7 10 7 C10 7.66 10 8.32 10 9 C8.02 9 6.04 9 4 9 C4 10.32 4 11.64 4 13 C6.31 13 8.62 13 11 13 C11 13.99 11 14.98 11 16 C7.37 16 3.74 16 0 16 C0 10.72 0 5.44 0 0 Z " fill="#98A3B5" transform="translate(624,457)"/>
<path d="M0 0 C3.63 0 7.26 0 11 0 C11 0.99 11 1.98 11 3 C8.69 3 6.38 3 4 3 C4 4.32 4 5.64 4 7 C5.98 7 7.96 7 10 7 C10 7.66 10 8.32 10 9 C8.02 9 6.04 9 4 9 C4 10.32 4 11.64 4 13 C6.31 13 8.62 13 11 13 C11 13.99 11 14.98 11 16 C7.37 16 3.74 16 0 16 C0 10.72 0 5.44 0 0 Z " fill="#98A3B5" transform="translate(509,457)"/>
<path d="M0 0 C3.0625 0.25 3.0625 0.25 6.0625 2.25 C6.0625 3.24 6.0625 4.23 6.0625 5.25 C5.0725 5.25 4.0825 5.25 3.0625 5.25 C3.0625 4.59 3.0625 3.93 3.0625 3.25 C1.4125 3.25 -0.2375 3.25 -1.9375 3.25 C-1.9375 4.24 -1.9375 5.23 -1.9375 6.25 C-0.2359375 6.7140625 -0.2359375 6.7140625 1.5 7.1875 C5.0625 8.25 5.0625 8.25 6.0625 9.25 C6.25 11.6875 6.25 11.6875 6.0625 14.25 C4.0625 16.25 4.0625 16.25 0.625 16.5625 C-2.9375 16.25 -2.9375 16.25 -4.875 14.875 C-5.9375 13.25 -5.9375 13.25 -5.9375 11.25 C-1.4825 12.24 -1.4825 12.24 3.0625 13.25 C3.0625 12.26 3.0625 11.27 3.0625 10.25 C2.134375 10.146875 1.20625 10.04375 0.25 9.9375 C-2.9375 9.25 -2.9375 9.25 -4.875 7.9375 C-5.9375 6.25 -5.9375 6.25 -5.75 4.1875 C-4.40092484 0.97047462 -3.49124877 0.29712756 0 0 Z " fill="#9EA9BC" transform="translate(917.9375,456.75)"/>
<path d="M0 0 C3.0625 0.25 3.0625 0.25 6.0625 2.25 C6.0625 3.24 6.0625 4.23 6.0625 5.25 C5.0725 5.25 4.0825 5.25 3.0625 5.25 C3.0625 4.59 3.0625 3.93 3.0625 3.25 C1.4125 3.25 -0.2375 3.25 -1.9375 3.25 C-1.9375 4.24 -1.9375 5.23 -1.9375 6.25 C-0.2359375 6.7140625 -0.2359375 6.7140625 1.5 7.1875 C5.0625 8.25 5.0625 8.25 6.0625 9.25 C6.25 11.6875 6.25 11.6875 6.0625 14.25 C4.0625 16.25 4.0625 16.25 0.625 16.5625 C-2.9375 16.25 -2.9375 16.25 -4.875 14.875 C-5.9375 13.25 -5.9375 13.25 -5.9375 11.25 C-1.4825 12.24 -1.4825 12.24 3.0625 13.25 C3.0625 12.26 3.0625 11.27 3.0625 10.25 C2.134375 10.146875 1.20625 10.04375 0.25 9.9375 C-2.9375 9.25 -2.9375 9.25 -4.875 7.9375 C-5.9375 6.25 -5.9375 6.25 -5.75 4.1875 C-4.40092484 0.97047462 -3.49124877 0.29712756 0 0 Z " fill="#9EA9BC" transform="translate(724.9375,456.75)"/>
<path d="M0 0 C3.0625 0.25 3.0625 0.25 6.0625 2.25 C6.0625 3.24 6.0625 4.23 6.0625 5.25 C5.0725 5.25 4.0825 5.25 3.0625 5.25 C3.0625 4.59 3.0625 3.93 3.0625 3.25 C1.4125 3.25 -0.2375 3.25 -1.9375 3.25 C-1.9375 4.24 -1.9375 5.23 -1.9375 6.25 C-0.2359375 6.7140625 -0.2359375 6.7140625 1.5 7.1875 C5.0625 8.25 5.0625 8.25 6.0625 9.25 C6.25 11.6875 6.25 11.6875 6.0625 14.25 C4.0625 16.25 4.0625 16.25 0.625 16.5625 C-2.9375 16.25 -2.9375 16.25 -4.875 14.875 C-5.9375 13.25 -5.9375 13.25 -5.9375 11.25 C-1.4825 12.24 -1.4825 12.24 3.0625 13.25 C3.0625 12.26 3.0625 11.27 3.0625 10.25 C2.134375 10.146875 1.20625 10.04375 0.25 9.9375 C-2.9375 9.25 -2.9375 9.25 -4.875 7.9375 C-5.9375 6.25 -5.9375 6.25 -5.75 4.1875 C-4.40092484 0.97047462 -3.49124877 0.29712756 0 0 Z " fill="#9EA9BC" transform="translate(529.9375,456.75)"/>
<path d="M0 0 C1.32 0 2.64 0 4 0 C5.75 2 5.75 2 7 4 C7.99 2.68 8.98 1.36 10 0 C11.32 0.33 12.64 0.66 14 1 C13.29875 1.886875 12.5975 2.77375 11.875 3.6875 C9.63152584 6.77424074 9.63152584 6.77424074 10.625 9.625 C11.305625 10.800625 11.305625 10.800625 12 12 C12.556875 13.1446875 12.556875 13.1446875 13.125 14.3125 C13.41375 14.869375 13.7025 15.42625 14 16 C12.35 15.67 10.7 15.34 9 15 C8.67 13.68 8.34 12.36 8 11 C7.34 11 6.68 11 6 11 C5.34 12.65 4.68 14.3 4 16 C2.68 15.67 1.36 15.34 0 15 C0.515625 14.278125 1.03125 13.55625 1.5625 12.8125 C3.22953374 10.15289745 3.22953374 10.15289745 2.8125 7.5 C1.98217285 4.94514723 1.05819663 2.46912547 0 0 Z " fill="#9DA7BA" transform="translate(966,457)"/>
<path d="M0 0 C3.63 0 7.26 0 11 0 C11 0.99 11 1.98 11 3 C8.69 3 6.38 3 4 3 C4 4.32 4 5.64 4 7 C5.98 7 7.96 7 10 7 C10 7.99 10 8.98 10 10 C8.02 10 6.04 10 4 10 C4 11.98 4 13.96 4 16 C2.68 16 1.36 16 0 16 C0 10.72 0 5.44 0 0 Z " fill="#929BAD" transform="translate(639,457)"/>
<path d="M0 0 C1.32 0 2.64 0 4 0 C4 4.29 4 8.58 4 13 C6.31 13 8.62 13 11 13 C11 13.99 11 14.98 11 16 C7.37 16 3.74 16 0 16 C0 10.72 0 5.44 0 0 Z " fill="#909BAC" transform="translate(791,457)"/>
<path d="M0 0 C1.32 0 2.64 0 4 0 C4 4.29 4 8.58 4 13 C6.31 13 8.62 13 11 13 C11 13.99 11 14.98 11 16 C7.37 16 3.74 16 0 16 C0 10.72 0 5.44 0 0 Z " fill="#909BAC" transform="translate(688,457)"/>
<path d="M0 0 C4.29 0 8.58 0 13 0 C13 0.99 13 1.98 13 3 C11.35 3 9.7 3 8 3 C8 7.29 8 11.58 8 16 C7.01 16 6.02 16 5 16 C5 11.71 5 7.42 5 3 C3.35 3 1.7 3 0 3 C0 2.01 0 1.02 0 0 Z " fill="#A3AEC1" transform="translate(984,457)"/>
<path d="M0 0 C4.29 0 8.58 0 13 0 C13 0.99 13 1.98 13 3 C11.35 3 9.7 3 8 3 C8 7.29 8 11.58 8 16 C7.01 16 6.02 16 5 16 C5 11.71 5 7.42 5 3 C3.35 3 1.7 3 0 3 C0 2.01 0 1.02 0 0 Z " fill="#A3AEC1" transform="translate(889,457)"/>
<path d="M0 0 C4.29 0 8.58 0 13 0 C13 0.99 13 1.98 13 3 C11.35 3 9.7 3 8 3 C8 7.29 8 11.58 8 16 C7.01 16 6.02 16 5 16 C5 11.71 5 7.42 5 3 C3.35 3 1.7 3 0 3 C0 2.01 0 1.02 0 0 Z " fill="#A3AEC1" transform="translate(702,457)"/>
<path d="M0 0 C4.29 0 8.58 0 13 0 C13 0.99 13 1.98 13 3 C11.35 3 9.7 3 8 3 C8 7.29 8 11.58 8 16 C7.01 16 6.02 16 5 16 C5 11.71 5 7.42 5 3 C3.35 3 1.7 3 0 3 C0 2.01 0 1.02 0 0 Z " fill="#A3AEC1" transform="translate(539,457)"/>
<path d="M0 0 C1.2684375 0.12375 1.2684375 0.12375 2.5625 0.25 C4.5625 3.25 4.5625 3.25 4.25 6.375 C3.5625 9.25 3.5625 9.25 2.5625 10.25 C0.0625 10.375 0.0625 10.375 -2.4375 10.25 C-3.4375 9.25 -3.4375 9.25 -3.5703125 7.4375 C-3.56773437 6.715625 -3.56515625 5.99375 -3.5625 5.25 C-3.56507813 4.528125 -3.56765625 3.80625 -3.5703125 3.0625 C-3.36267423 0.22884828 -2.83331045 0.29059594 0 0 Z " fill="#111317" transform="translate(571.4375,459.75)"/>
<path d="M0 0 C6.0546875 -0.1953125 6.0546875 -0.1953125 8 0 C8.66 0.66 9.32 1.32 10 2 C9.46428571 5.53571429 9.46428571 5.53571429 8 7 C5.32941149 7.14115161 2.67567762 7.04247107 0 7 C0 4.69 0 2.38 0 0 Z " fill="#BBEF2B" transform="translate(365,463)"/>
<path d="M0 0 C1.32 0 2.64 0 4 0 C4 5.28 4 10.56 4 16 C2.68 16 1.36 16 0 16 C0 10.72 0 5.44 0 0 Z " fill="#8E98A9" transform="translate(784,457)"/>
<path d="M0 0 C1.32 0 2.64 0 4 0 C4 5.28 4 10.56 4 16 C2.68 16 1.36 16 0 16 C0 10.72 0 5.44 0 0 Z " fill="#8E98A9" transform="translate(556,457)"/>
<path d="M0 0 C1.2684375 0.12375 1.2684375 0.12375 2.5625 0.25 C4.5625 3.25 4.5625 3.25 4.1875 6.4375 C3.98125 7.365625 3.775 8.29375 3.5625 9.25 C2.2425 8.59 0.9225 7.93 -0.4375 7.25 C-0.1075 8.24 0.2225 9.23 0.5625 10.25 C-0.7575 9.92 -2.0775 9.59 -3.4375 9.25 C-3.53515625 3.09765625 -3.53515625 3.09765625 -3.4375 1.25 C-2.4375 0.25 -2.4375 0.25 0 0 Z " fill="#14151A" transform="translate(480.4375,459.75)"/>
<path d="M0 0 C3.375 -0.125 3.375 -0.125 7 0 C7.66 0.66 8.32 1.32 9 2 C8.46428571 5.53571429 8.46428571 5.53571429 7 7 C4.66702567 7.04092937 2.33294775 7.04241723 0 7 C0 4.69 0 2.38 0 0 Z " fill="#B6E82A" transform="translate(365,452)"/>
<path d="M0 0 C2.97 0.495 2.97 0.495 6 1 C6 3.64 6 6.28 6 9 C4.02 9.33 2.04 9.66 0 10 C0 6.7 0 3.4 0 0 Z " fill="#090A0E" transform="translate(809,460)"/>
<path d="M0 0 C2.97 0.495 2.97 0.495 6 1 C6 3.64 6 6.28 6 9 C4.02 9.33 2.04 9.66 0 10 C0 6.7 0 3.4 0 0 Z " fill="#090A0E" transform="translate(610,460)"/>
<path d="M0 0 C2.29633824 3.44450737 2.54016485 5.93812283 3 10 C1.02 10 -0.96 10 -3 10 C-2.69201674 8.51988629 -2.378482 7.04092675 -2.0625 5.5625 C-1.88847656 4.73878906 -1.71445312 3.91507812 -1.53515625 3.06640625 C-1 1 -1 1 0 0 Z " fill="#B4E52A" transform="translate(336,454)"/>
<path d="M0 0 C3.0625 0.25 3.0625 0.25 6.0625 2.25 C6.0625 3.24 6.0625 4.23 6.0625 5.25 C5.0725 5.25 4.0825 5.25 3.0625 5.25 C3.0625 4.59 3.0625 3.93 3.0625 3.25 C1.4125 3.25 -0.2375 3.25 -1.9375 3.25 C-2.2675 3.91 -2.5975 4.57 -2.9375 5.25 C-3.2675 4.92 -3.5975 4.59 -3.9375 4.25 C-4.5975 4.91 -5.2575 5.57 -5.9375 6.25 C-5.126637 2.19568502 -4.45260891 0.37894544 0 0 Z " fill="#8F99AA" transform="translate(917.9375,456.75)"/>
<path d="M0 0 C3.0625 0.25 3.0625 0.25 6.0625 2.25 C6.0625 3.24 6.0625 4.23 6.0625 5.25 C5.0725 5.25 4.0825 5.25 3.0625 5.25 C3.0625 4.59 3.0625 3.93 3.0625 3.25 C1.4125 3.25 -0.2375 3.25 -1.9375 3.25 C-2.2675 3.91 -2.5975 4.57 -2.9375 5.25 C-3.2675 4.92 -3.5975 4.59 -3.9375 4.25 C-4.5975 4.91 -5.2575 5.57 -5.9375 6.25 C-5.126637 2.19568502 -4.45260891 0.37894544 0 0 Z " fill="#8F99AA" transform="translate(724.9375,456.75)"/>
<path d="M0 0 C3.0625 0.25 3.0625 0.25 6.0625 2.25 C6.0625 3.24 6.0625 4.23 6.0625 5.25 C5.0725 5.25 4.0825 5.25 3.0625 5.25 C3.0625 4.59 3.0625 3.93 3.0625 3.25 C1.4125 3.25 -0.2375 3.25 -1.9375 3.25 C-2.2675 3.91 -2.5975 4.57 -2.9375 5.25 C-3.2675 4.92 -3.5975 4.59 -3.9375 4.25 C-4.5975 4.91 -5.2575 5.57 -5.9375 6.25 C-5.126637 2.19568502 -4.45260891 0.37894544 0 0 Z " fill="#8F99AA" transform="translate(529.9375,456.75)"/>
<path d="M0 0 C2.475 0.495 2.475 0.495 5 1 C5 1.99 5 2.98 5 4 C3.35 4 1.7 4 0 4 C0 2.68 0 1.36 0 0 Z " fill="#0A0B0F" transform="translate(753,466)"/>
<path d="M0 0 C1.67542976 0.28604898 3.34385343 0.61781233 5 1 C5.33 2.32 5.66 3.64 6 5 C5.01 5 4.02 5 3 5 C2.67 4.34 2.34 3.68 2 3 C1.01 2.34 0.02 1.68 -1 1 C-0.67 0.67 -0.34 0.34 0 0 Z " fill="#99A3B5" transform="translate(918,457)"/>
<path d="M0 0 C1.67542976 0.28604898 3.34385343 0.61781233 5 1 C5.33 2.32 5.66 3.64 6 5 C5.01 5 4.02 5 3 5 C2.67 4.34 2.34 3.68 2 3 C1.01 2.34 0.02 1.68 -1 1 C-0.67 0.67 -0.34 0.34 0 0 Z " fill="#99A3B5" transform="translate(725,457)"/>
<path d="M0 0 C1.67542976 0.28604898 3.34385343 0.61781233 5 1 C5.33 2.32 5.66 3.64 6 5 C5.01 5 4.02 5 3 5 C2.67 4.34 2.34 3.68 2 3 C1.01 2.34 0.02 1.68 -1 1 C-0.67 0.67 -0.34 0.34 0 0 Z " fill="#99A3B5" transform="translate(530,457)"/>
<path d="M0 0 C2.475 0.495 2.475 0.495 5 1 C4.67 1.99 4.34 2.98 4 4 C2.68 4 1.36 4 0 4 C0 2.68 0 1.36 0 0 Z " fill="#1C1E23" transform="translate(753,460)"/>
</svg>
