<svg xmlns="http://www.w3.org/2000/svg" width="1024" height="839"><path fill="#050609" d="M34 289h585l363-1q18-1 31 11c11 12 12 23 12 39v167c0 14-1 24-12 35q-9 9-23 9H337l-295 1q-18 1-31-11l-7-9-1-2q-6-12-4-27V333c0-14 1-24 12-35q9-9 23-9"/><path fill="#fefefe" d="m130 338-9 6q-24 12-34 37-6 20 4 38 15 23 41 31v-35c0-5 0-5-3-9l-11-5-5-1v10l-4 1-20-25-1-5 22-8 4-1 8-1 1 5-5 7 3 1q9 2 17 8l4 1 7-4c9-5 9-5 15-5l-1-2-2-2-1-3v-6l21 5 3 2 11 5-21 29-5-1v-11l-7 3-2 1-9 5-1 9v31l7-1q15-6 26-18l2-2q13-13 13-32-1-23-19-41-12-9-27-16 7-1 14 1h3q31 6 51 30 12 17 8 36-5 22-26 34-10 6-22 9l10 8 3 2 3 2 7 4 3 2 4 4v20l-13-8-2-1-7-5-29-19-3-2-6-3v37h-17l-1-4v-33l-53 35-6 4v-10l-1-3c0-7 0-7 2-10l7-4 12-8 3-2 7-5-2-1c-19-7-36-16-45-36q-5-17 1-33 8-17 23-26l3-2q21-13 47-14"/><path fill="#c6fd2d" d="M274 434h153q6 0 10 5 2 5 1 11v25q1 7-3 13-5 3-12 2l-141 1c-13 0-13 0-17-3q-4-5-3-10l-1-28v-3q0-6 3-10l3-2q4-2 7-1"/><path fill="#f1f3f5" d="M662 361q8 5 12 14 4 13-3 25-5 8-15 9c-15 0-15 0-20-5q-9-10-7-23 0-10 7-17l3-2 3-2q11-3 20 1"/><path fill="#eef0f2" d="M472 359c27 0 27 0 34 5q4 5 2 11 0 4-5 7h-3v2h3l5 3q4 6 2 13-2 6-7 8-9 2-18 1h-13z"/><path fill="#020202" d="M86 382a123 123 0 0 1 20 25l6 3 1-10q11 0 19 8v42c-16-2-31-14-40-26q-10-17-8-37z"/><path fill="#030303" d="M197 384q5 18-4 34-13 21-35 30l-8 1-1-22c0-16 0-16 3-21l7-3 4-2 6-1 1 11h4l7-10 2-2 5-8 2-3q3-3 7-4"/><path fill="#eef0f2" d="M379 359c27 0 27 0 35 7q4 7 2 15l-3 6-5 2 1 2 4 7 1 2 2 3 1 2 1 4h-12l-1-3-2-5-1-2-1-2-1-2c-3-3-3-3-10-3v17h-11z"/><path fill="#eceef0" d="M685 359c10 0 10 0 12 2l2 2 2 3 1 3 2 3 3 5 8 12 1-30h11v50c-10 0-10 0-12-2l-2-2-1-2-2-3-3-5-3-5-7-10-1 29h-11z"/><path fill="#f1f3f5" d="M320 360h15l12 34 1 3 1 2v3l2 7h-11l-3-11h-19l-3 11h-11l5-19 1-2z"/><path fill="#eaecee" d="M520 359h34v9h-23v12h21v9h-21v11h23v9h-34zm-93 0h34v9h-23v12h21v9h-21v11h23v9h-34z"/><path fill="#ebecef" d="M565 359h11v41h21v9h-32zm-301 0h11v41h21v9h-32z"/><path fill="#0a0b0e" d="M655 368q6 2 9 9 2 10-3 19-3 4-7 4-6 2-11-2-6-9-4-20 2-6 7-9z"/><path fill="#e9ebed" d="M607 359h11v50h-11z"/><path fill="#11150c" d="M359 447c14 0 14 0 19 3l1 4q1 4-2 7l2 2 3 5q-1 4-5 6l-11 1h-7z"/><path fill="#10140c" d="M332 447h8c9 24 9 24 9 28h-6l-1-6-11 1-2 5h-6z"/><path fill="#111216" d="M952 457h18l3 4 3-4 4 1-2 3q-3 3-1 6l1 2 1 2 1 2-5-1-1-4h-2l-2 5h-18z"/><path fill="#10140c" d="M406 447q4 2 6 5v3h-6v-2h-7v4l2 1 3 1 3 1q3 1 5 4 2 5-2 9-7 4-14 2l-5-5v-4h5l2 3h7l1-4-2-1h-3l-3-1q-4-1-7-5-1-5 3-9 5-4 12-2"/><path fill="#13170c" d="M295 447h6v23h12v5h-18z"/><path fill="#0b0c0f" d="M390 368c10-1 10-1 14 2q3 3 2 7l-3 5-13 1z"/><path fill="#9da7ba" d="m481 456 5 3q4 7 1 15c-9 0-9 0-13-3q-2-4-1-9 2-5 8-6"/><path fill="#96a0b2" d="M805 457c8-1 8-1 12 2l3 6q-1 6-6 8h-9zm-199 0c8-1 8-1 12 2l3 6q-1 6-6 8h-9z"/><path fill="#0e0f12" d="m483 387 14 1 3 5q1 3-2 5c-4 4-10 2-15 2z"/><path fill="#9da8bb" d="m572 456 5 3q4 4 2 9l-4 5h-7q-4-3-4-8 0-7 8-9"/><path fill="#98a2b5" d="M749 457c9 0 9 0 12 2l-1 3v3l2 2q0 4-3 6h-10z"/><path fill="#9aa4b7" d="m829 457 4 1 2 7 3-8 4 1 1 9h2l1-10h4l-4 16h-4l-3-8-3 8h-3l-2-6-1-4z"/><path fill="#0b0c0f" d="M483 368c11 0 11 0 15 3l-1 7q-7 3-14 2z"/><path fill="#939daf" d="M934 457h4l3 4 1 1 1 2 1-7h4v16h-4l-3-4-1-2-1-2-1 8h-4zm-352 0h4l3 4 1 1 1 2 1-7h4v16h-4l-3-4-1-2-1-2-1 8h-4z"/><path fill="#9099ab" d="M876 457h5l3 7v2l2 7h-4l-1-3-6-1-1 4h-3z"/><path fill="#929bad" d="M766 457h4l1 12h4l1-12h4v10q1 3-2 5l-8 1-4-4zm-95 0h4l1 12h4l1-12h4v10q1 3-2 5l-8 1-4-4z"/><path fill="#9099ab" d="M658 457h5l3 7v2l2 7h-4l-1-3-6-1-1 4h-3z"/><path fill="#929bad" d="M492 457h4l1 12h4l1-12h4v10q1 3-2 5l-8 1-4-4z"/><path fill="#1f2023" d="m327 371 5 10v2l2 7h-13z"/><path fill="#9ba6b8" d="M854 457h4v7h7v-7h3v16h-3v-7h-7v7h-4z"/><path fill="#98a3b5" d="M952 457h11v3h-7v4h6v2h-6v4h7v3h-11zm-328 0h11v3h-7v4h6v2h-6v4h7v3h-11zm-115 0h11v3h-7v4h6v2h-6v4h7v3h-11z"/><path fill="#9ea9bc" d="m918 457 6 2v3h-3v-2h-5v3l3 1 5 2v5q-2 3-5 2l-6-1-1-4 9 2v-3h-3l-5-2-1-4q2-4 6-4m-193 0 6 2v3h-3v-2h-5v3l3 1 5 2v5q-2 3-5 2l-6-1-1-4 9 2v-3h-3l-5-2-1-4q2-4 6-4m-195 0 6 2v3h-3v-2h-5v3l3 1 5 2v5q-2 3-5 2l-6-1-1-4 9 2v-3h-3l-5-2-1-4q2-4 6-4"/><path fill="#9da7ba" d="M966 457h4l3 4 3-4 4 1-2 3q-3 3-1 6l1 2 1 2 1 2-5-1-1-4h-2l-2 5-4-1 2-2 1-5z"/><path fill="#929bad" d="M639 457h11v3h-7v4h6v3h-6v6h-4z"/><path fill="#909bac" d="M791 457h4v13h7v3h-11zm-103 0h4v13h7v3h-11z"/><path fill="#a3aec1" d="M984 457h13v3h-5v13h-3v-13h-5zm-95 0h13v3h-5v13h-3v-13h-5zm-187 0h13v3h-5v13h-3v-13h-5zm-163 0h13v3h-5v13h-3v-13h-5z"/><path fill="#111317" d="M571 460h3l2 6-2 4h-5l-1-3v-4q0-4 3-3"/><path fill="#bbef2b" d="M365 463h8l2 2-2 5h-8z"/><path fill="#8e98a9" d="M784 457h4v16h-4zm-228 0h4v16h-4z"/><path fill="#14151a" d="M480 460h3l2 6-1 3-4-2 1 3-4-1v-8z"/><path fill="#b6e82a" d="M365 452h7l2 2-2 5h-7z"/><path fill="#090a0e" d="m809 460 6 1v8l-6 1zm-199 0 6 1v8l-6 1z"/><path fill="#b4e52a" d="M336 454q3 4 3 10h-6l1-4v-3z"/><path fill="#8f99aa" d="m918 457 6 2v3h-3v-2h-5l-1 2-1-1-2 2q0-6 6-6m-193 0 6 2v3h-3v-2h-5l-1 2-1-1-2 2q0-6 6-6m-195 0 6 2v3h-3v-2h-5l-1 2-1-1-2 2q0-6 6-6"/><path fill="#0a0b0f" d="m753 466 5 1v3h-5z"/><path fill="#99a3b5" d="m918 457 5 1 1 4h-3l-1-2-3-2zm-193 0 5 1 1 4h-3l-1-2-3-2zm-195 0 5 1 1 4h-3l-1-2-3-2z"/><path fill="#1c1e23" d="m753 460 5 1-1 3h-4z"/></svg>