<svg width="1600" height="900" viewBox="0 0 1600 900" fill="none" xmlns="http://www.w3.org/2000/svg">
  <rect width="1600" height="900" fill="#06070A"/>
  <g opacity="0.16">
    <path d="M0 0H1600" stroke="#1A2030" stroke-width="1"/><path d="M0 48H1600" stroke="#1A2030" stroke-width="1"/><path d="M0 96H1600" stroke="#1A2030" stroke-width="1"/><path d="M0 144H1600" stroke="#1A2030" stroke-width="1"/><path d="M0 192H1600" stroke="#1A2030" stroke-width="1"/><path d="M0 240H1600" stroke="#1A2030" stroke-width="1"/><path d="M0 288H1600" stroke="#1A2030" stroke-width="1"/><path d="M0 336H1600" stroke="#1A2030" stroke-width="1"/><path d="M0 384H1600" stroke="#1A2030" stroke-width="1"/><path d="M0 432H1600" stroke="#1A2030" stroke-width="1"/><path d="M0 480H1600" stroke="#1A2030" stroke-width="1"/><path d="M0 528H1600" stroke="#1A2030" stroke-width="1"/><path d="M0 576H1600" stroke="#1A2030" stroke-width="1"/><path d="M0 624H1600" stroke="#1A2030" stroke-width="1"/><path d="M0 672H1600" stroke="#1A2030" stroke-width="1"/><path d="M0 720H1600" stroke="#1A2030" stroke-width="1"/><path d="M0 768H1600" stroke="#1A2030" stroke-width="1"/><path d="M0 816H1600" stroke="#1A2030" stroke-width="1"/><path d="M0 864H1600" stroke="#1A2030" stroke-width="1"/>
    <path d="M0 0V900" stroke="#1A2030" stroke-width="1"/><path d="M48 0V900" stroke="#1A2030" stroke-width="1"/><path d="M96 0V900" stroke="#1A2030" stroke-width="1"/><path d="M144 0V900" stroke="#1A2030" stroke-width="1"/><path d="M192 0V900" stroke="#1A2030" stroke-width="1"/><path d="M240 0V900" stroke="#1A2030" stroke-width="1"/><path d="M288 0V900" stroke="#1A2030" stroke-width="1"/><path d="M336 0V900" stroke="#1A2030" stroke-width="1"/><path d="M384 0V900" stroke="#1A2030" stroke-width="1"/><path d="M432 0V900" stroke="#1A2030" stroke-width="1"/><path d="M480 0V900" stroke="#1A2030" stroke-width="1"/><path d="M528 0V900" stroke="#1A2030" stroke-width="1"/><path d="M576 0V900" stroke="#1A2030" stroke-width="1"/><path d="M624 0V900" stroke="#1A2030" stroke-width="1"/><path d="M672 0V900" stroke="#1A2030" stroke-width="1"/><path d="M720 0V900" stroke="#1A2030" stroke-width="1"/><path d="M768 0V900" stroke="#1A2030" stroke-width="1"/><path d="M816 0V900" stroke="#1A2030" stroke-width="1"/><path d="M864 0V900" stroke="#1A2030" stroke-width="1"/><path d="M912 0V900" stroke="#1A2030" stroke-width="1"/><path d="M960 0V900" stroke="#1A2030" stroke-width="1"/><path d="M1008 0V900" stroke="#1A2030" stroke-width="1"/><path d="M1056 0V900" stroke="#1A2030" stroke-width="1"/><path d="M1104 0V900" stroke="#1A2030" stroke-width="1"/><path d="M1152 0V900" stroke="#1A2030" stroke-width="1"/><path d="M1200 0V900" stroke="#1A2030" stroke-width="1"/><path d="M1248 0V900" stroke="#1A2030" stroke-width="1"/><path d="M1296 0V900" stroke="#1A2030" stroke-width="1"/><path d="M1344 0V900" stroke="#1A2030" stroke-width="1"/><path d="M1392 0V900" stroke="#1A2030" stroke-width="1"/><path d="M1440 0V900" stroke="#1A2030" stroke-width="1"/><path d="M1488 0V900" stroke="#1A2030" stroke-width="1"/><path d="M1536 0V900" stroke="#1A2030" stroke-width="1"/><path d="M1584 0V900" stroke="#1A2030" stroke-width="1"/>
  </g>
  <circle cx="1260" cy="160" r="220" stroke="#C8FF2E" stroke-opacity="0.22" stroke-width="2"/>
  <circle cx="1260" cy="160" r="280" stroke="#1193B0" stroke-opacity="0.18" stroke-width="2"/>
  <circle cx="1260" cy="160" r="340" stroke="#DA7756" stroke-opacity="0.12" stroke-width="2"/>
  <path d="M1170 98C1208 68 1244 56 1296 58C1349 60 1385 78 1421 116" stroke="#F8FAFC" stroke-opacity="0.22" stroke-width="2"/>
</svg>