<svg xmlns="http://www.w3.org/2000/svg" width="400" height="400" viewBox="0 0 400 400"><g fill-rule="evenodd"><path fill="#656566" d="m176 36 1 1h1l-1-1zm-9 1h1l-1-1zm63 0q1 0 0 0m115 45 1 1zm14 14 1 1 1 1zm-205 8h1zm5 1q-1-1 0 0m-75 18-1 2h1zm7 2h1zm-4 2-2 1q1 1 3-2zm-5 3-1 1h1zq0-1 0 0m-65 3v3-2q1-2-1-1m62 8v-2zm242 16v3zm-26-3-1 1zq2-2 0 0m-155 13v1zm118 10v4zm-38 6q-1 3 1 1l1-2zm53 0-1 1zm-256 2v2l1-1v1-1zm112 1 1 1-2-2zm90 41c0 43 0 43 1 42v-42zm-88-39h3zm88 127v38l-19 1h20v-38z"/><path fill="#fcfcfc" d="M170 36h-8l-7 1q1-1-2-1v2h-1l-4 1h-7v-1l-1 1h1l-1 1-10 2-1 1h-3l-1-1v1h-2q-1-1 0 0 1 2-2 2h-2l-1 1h-1l-2 1h-2v1h-2q-3 2-6 1h-1l1 1-2 1-2 1h-1v1h-2l-4 2h-1l-1 1v-1q1 0 0 0l-3 1-4 2q0-1 0 0h-1v1h-1l-1 1 4-2 5-2-1 1h-1v1h-1l-2 1-3 1-4 2 1-1q2 0 0 0h-1l-1 1h-1 1q2 0 0 2l-2 1h-1l-1 1-2 1h-1v1h-1l-1 1-2 1-2 2-1 1h-2v-1q0 1 0 0l-1 1q1 0 0 0l1 1q0-1 0 0l-1 1-4 3-3 2v-1l-2 1h2l-4 4-4 4-4 3 2-2 2-3-5 5h1l-2 3-5 6-1 2-1 1-1 1-2 3-2 3v1l-2 2-1 3-1 1-1 1v-1l1-3-1 3h-1v1l-1 1v1l-1 1h2v-1l-1 4v1h-1v1l-1 3h-1v4h-1v2l-1 1h-1l1 1v1l-1 2v1q1 2-1 3l-1 1h1v28l-1 1h1l1 1 1 3 1 7 1 1v3q1 0 0 0v1q-1-1 0 0v1l1 2v-2l-1-1 1 1 1 2v3l1-1 1 3q0 2 0 0h-1v-1 1l1 1 2 2 1 2 1 1 1 2 1 2q-1 0 0 0h-1v-1l-1 1q0-1 0 0l1 1h2l-1 1 1 2h1l-1-1 3 3 3 3 1 2 1 1 2 2 8 8 3 2 2 3 1 1 2 1 4 3 1 1h1l1 1 1 1h1v1h2l1 1 1 1 13 7 17 8h1l1 1 2 1v1l1-1h2l1 1h1l3 1 3 1h1v2l2-1h-1l1 1 1-1h1l2 1v1l-3 2-3 2h-1q-1 2-3 1v1l-2 2h-2v1l-1 1h-1l-5 4-1 1q0-1 0 0l-2 1v1h-1l-3 2-2 1-3 2-3 2-1 1-2 1-2 1h-2l-1 1q1 0 0 0h1l2-1q-1 2-3 2v1h-1l-1 1-5 2v-1 2l-1 1-2 1-3 2-2 1q0 1 0 0l-1 1-1 1-2 1-2 1c-2 0-2 1-2 23 0 23 0 24 2 21h1l1-1 2-1 3-2 1-1h1l1-1 3-2 3-2 1-1 3-2 3-2 1-1h1v-1l3-1 2-2h1q0-1 0 0l1-1 3-2 2-1 1-1 1-1h1l1-1 2-1 1-1 1-1h1l1-1 2-1 1-1 1-1 2-1 1-1 3-2 4-1h1l-1-1q-1 1 0 0v-1l3-1 2-1 1-1 1-1 1-1h1l2-2 2-1 1-1h1q1-2 3-1h1v-1h1-2l1-1h1l1-1 2-1v-1h1l1-1 2-1 2-1 1-1 1-1 4-2 1-1 1-1 3-2 2-1 1-1 1-1h1l1-1 2-1h2l1-1h-2l2-1 2-1 1-1 1-1 2-1h2v-2h3v38l1-39h1v77l19 1 19-1v-38l3-39v1h1l1 1h-2 1v1l1 1 2 1 2 1 1 1h1l3 2-1-1-2-2-2-1h-1q-1 0 0 0l-1-1-1-1h1q0 1 0 0l1 1h1l3 3h1l3 2 2 1 1 1h1l1 1 2 1 2 2h1l1 1v1l-2-1 1 1h1l4 2 3 1v1l1 1 2 1h1l1 1 2 1 1 1 3 2 3 2 1 1 1 1 2 1 2 1 1 1h1l1 1 1 1 1 1h1l1 1 1 1 2 1q0-1 0 0l1 1 2 1 4 2v1h1l1 1 2 1 2 1 1 1 1 1q0-1 0 0l1 1 3 1 2 1v1h1l1 2 1 1 2 1h2l1 1h1l1 1 2 1 1 2 2 1v1l1 1h3l1 1 4 2q1 1-1 1l-1-1v1l1 1h1l4 1h1v1h1l1 1 1 1 2 1 1 1h1l1 1 1 1h1q0 1 0 0l1-21v-22l-3-2-3-1v-1l-1-1-1-1h1l-2-1h-2l-2-1v-1h-1l-1-1h-1v-1l1 1 4 1h-1l-1-1-3-2-1-1-2-1-1-1-2-1-3-2-1-1h-1l-1-1h-1l1 1 3 1 2 2q7 4 6 5l-1-1-2-1-1-1-1-1-2-1-3-2-3-2h-1v-1l-2-1-3-2q0 1 0 0l-3-2-3-1-1-1-1-1-1-1-1-1-2-1-1-1h-1l-1-1-1-1-3-1-3-2v-1l-2-1-1-1h-1l-2-2v-1h-2l2-1 2-1h2l2-1 1 1h1l1-2h2l1-1h2l2-1 2-1h1l1-1h2l2-1h1l1-1h1l3-2h1q3-2 5-1l1-1 3-1-1-1-3 2q-2-1 2-1l2-2h1l2-1 2-1 1-1-1 1v1l2-1v-1l1-1 2-1 1-1 2-1 1-1 4-3 3-2 2-1v-1l4-3 5-4h1l-1 1v1l4-4 4-4h-2l4-4 4-5v-1l1-1 2-2 2-4 1-1 1-2 1-2 1-3 2-3v-1l1-2 1-3 2-2v-4l1-2v-2h1l1-1h-1v-2l1-3v-2l1-3-2-27h1l-1-1-1-2v-2h-1v-4l-1-2-1-2v-1l-1-1-1-5v-2l-2-3-1-1v-1 1q-1 2-1-1l-1-1-1-2-1-1v-1h-1l-1-1q-1-4-3-5l-1-1-1-2-31-29-3-2-2-1-1-1h-1l-1-1-1-1-2-1-3-2q0 1 0 0h-1l-2-1-3-2-2-1 4 1 5 2h-1l-1-1h-1l-2-1-1-1q0 1 0 0h-1v-1h-2l-1-1h-1l-2-1-2-1 1 1h1-3v-1h-1l-4-2h-2l-2-1-1-1v-1c-1 1-6 0-7-1l-2-1-3-2h-1v1l-1-1h-3l-2-1-1-1-1-1v1h-4v-1h-2l-4-1-4-1h-2l-6-1-6-1v-2h-2v1h1l-14-1q-3-1-1-1h-6q-1 1 1 1l1 1h2v1l4 2 1 1q1 0 0 0l-1-1h1l2 1q2 0 0 0t-1 1h1l1 1 3 1-1-1-2-1h2l2 1 5 3 3 1 2 2 2 1 2 1 1 1h-1l-9-5q-1 0 0 0l1 1h1q0 1 0 0l1 1h1l1 1h1v1h1q1 2 3 1h1l2 1 2 2h1q2 1-1 1l-1-1 1 1 2 1h1v1h1v-1l1 1q0-1 0 0l2 1 1 1 1 1 2 1 1 1 3 3 3 2 3 3 3 3 6 6 3 3 3 3 1 2 2 2h-1l-1-1v1l2 1v2h1v-1l-1-1 1 1 1 1 1 1 2 2 1 2 1 2 1 1q-1 0 0 0v1l1 2 1 1v1q1 0 0 0l-1-1h-1 1v2h1l1 1v-1l1 1 1 2 1 5v2l1 1v-1q-1-3 1 0l1 2 2 6h-1q-1 0 0 0l1 2 1 1v3h1v2l1 2v7-2l-1 1 1 1v6l1-1 1 2c0 5 0 18-1 15h-1v3l1 2-1 1v5l-1 3v2h-1v3l-2 2h-1 1v1l-1 4-1-1v1q1 3-1 5l-1 2-1 3v-3l1-2-1 2-1 1q0-2 0 0l-1 2v1h-1v1l1-1 1-1v1l-1 2-1 2-1 1-2 3-2 3v1l-1 1-2 3-2 2-2 2-2 2-30 26-1 1-1 1h-1l-1 1-1 1-2 1q0-1 0 0h-1l-2 1-1 1h-3l-1 1h-1l-2 1-1 1h-1l-1 1h-1l-1 1h-1 3l-6 3-2 1-3 1-9 2h-3v-84l1-1 2-2 4-3 3-2 3-2 3-1 1-1 3-1 4-2h1l2-1 3-1 2-1q0 1 0 0l3-1c5 0 4-1 4 11v10l2 1q4 6 9 0l2-3h1v-1l1-1 2-2 1-1 1-2 1-2 1-2h1l1-1 1-1v-1l2-3 2-3 2-1v-1l3-5 3-3v-1h1l2-3v1q0 1 0 0h1v-3l1-1v-1l1-1 1-1 1-1 2-3 2-3 1-1 1-2 2-2 2-2q2-4-1-4l-2-1h-1l-2-1-3-1h-2v-1h-2l-4-1-2-1v-1h-2l-3-1-2-1h-1l-3-1-3-1-3-1-3-1v-1h-2l-2-1-3-1-2-1-3-1-3-1h-1l-3-1-4-2-10-1c-1 1-4 8-2 8v1l1 2 3 6h-1 1l2 2 1 1 1 1 1 2q3 4-2 4l-4 2h-3l-2 1-3 1h-1v1h-2l-7 3-4 2-4 3-4 2h-2q1 1-3 4l-2 1-2 1-1 1-1 1-1-1-1-1-2-1-4-3-3-2-3-1-2-2-2-1-2-1-11-5-6-2-2-1-6-2h-1q0-1 0 0l-1-1h-2l-1-1v-1l1 1h1v-1 1c-2 0 0-5 1-5l1-1 1-1 1-3 1-1 1-1 1-2 1-1 1-7-2-1q-5-4-11 0l-6 1-1 1-1 1-6 1-1 1h-1l-2 1h-2l-1 1h-2q0 2 0 0l-1 1-3 1-2 1h-2l-2 1-3 1-3 1-3 1-2 1h-1l-2 1h-1l-1 1h-2l-1 1h-2l-2 1h-2v1h-1q-3 0-2 3l1 2v1l1 1 3 4 3 4 1 1 2 3 2 3 1 1 1 1 1 1v1l3 4 4 4v1l1 2 4 4 1 1v1l1 1 2 2 2 4 1 2 1 2v-1l2 2 1 1 1 1 4 4c2 2 9 0 9-2l1-2 1-7-1-6-1 1v-6h6l3 1 4 1 3 2 3 1h1l14 8 1 1 1 1 2 2 2 1v1l-1 42v43h-3l-2 1-2-1-3-2h-3l-2-1-2-1q0-1 0 0l-1-1-2-1-3-1-2-1q-4-2-2-2h-1l-2-1-2-1q0 1 0 0l-2-1-2-1h-1l-1-1-1-1h1q1 2 3 1l-9-4-1-1-1-1-5-3h2-2l-1-1h-1l-1-1-2-1-1-1v-1l-28-31-1-1v-1l-2-4v1l1 1q0-1 0 0l1 1 1 2 1 1-1-2-1-1q1 0 0 0v-1l-2-3-1-2-1-1 1 2v1l-1-1-1-1-1-3-1-3-1-3-1-2-1-1q1 0 0 0v-3l-1-1v-2l-1-3v-1l-1-2v-1h1l-1-1-1-5-1-5v-2l1-1v-20l1-3h1v-2l1-1h-1v-3l1-2v-3l1-3q1 0 0 0l1-1 1-3q1-3 1 0v1-4l2-4 1-1v-1l1-3 2-2q1 0 0 0l1 1v-3l1-2 1-2 1-1 2-3 2-3 1-1 1-1v-1l2-2 31-29 1-1h1l1-1 1 1q0 1 0 0l1-1h1l1-1h1l1-1v-1h-1v1l-1 1-3 1 2-2 3-2 2-1 2-1 3-2 3-2 2-1h1l1-1h1l-1 1-2 1h2l1-1 1-1h1q0 1 0 0l1-1h-1l-1 1 1-1 1-1 2-1 5-2 2-1 1-1 1 1 1-1h2v-1l-1-1zm-6 0h2zm68 0h2zm-74 1h3l-1-1zm79 0h3l-2-1zm-15 1h-1zm-72 0h2q2 0 0 0zm96 0h2zm4 0 1-1zm-107 1 1 1 1-1zm110 0 1 1 1-1zm-82 0-1 1zq1-1-1-1m54 0 3 2v-1zm31 1h2l-1-1zm3 0 1-1zm-92 1 2-1zm102 2h2zm5 1 1 1h1zm-34 2q-2 0 0 0m43 1 1 1v-1zm-169 0 1-1zm40 1v1l1-1zm-3 1-1 2q0 1 0 0l2-1 1-1zm139 1h2l-1-1zm4 1 2 1h2l-3-1zm-146 0-1 1zq2-2 0-1m-51 2v1l2-1h1zm202 0 2 1h1zq-1 0 0 0m-45 1 2 2zm53 3 1 1q3 0 1 1l-1-1zm-173 4q0 2 0 0m128-1 1 1h1q0 2 0 0l1 1h1-1zm-130 3-2 1-1 1h1v-1zv-1zm135 0 1 1zq-1 0 0 0m53 1h1zh-1zM76 65l-3 2h-1l-1 1 4-2zm246-1 1 2h1v-1zm-195 2-2 2 3-2zm142 0h2v1l2 1 2 2v-1l-4-3zm56 0 1 1 3 2 1 1-1-2-2-1zM69 69l-1 1h1zm53 1v1l2-1zm-57 1 1 1v-1zm212 0 5 5zq-2 0 0 0m56 0 2 1q3 2 0-1zm-214 2-6 7 1-1v-1l2-1 1-1 1-1 1-1zm218 1 1 1q1 2 0 0zM60 76v-1zm279 0 1 2h1v-1zM58 77h-1 2zm284 2 2 1-1-1zm-55 2 4 5v-1h-1v-1l-1-1zM52 83q-1 0 0 0m294-1 2 2 4 3-2-2-1-1zm-239 3v1l2-2zm-58 0-2 1v1zm243 2 2 2v-1zm-187 1-1 2zq3-3 0-1m250 3h1zq-1-1 0 0m-253 1v1l-1 1 1-1zm256 2 1 1zl-1-1zM40 95l-2 2h1zq2-1 0 0m259 0v1zM99 96v1q0 1 0 0zm262 1 2 2zm-60 1 2 4 1 1 1 2-2-5zM97 98l-1 2-1 2v1l1-1 1-2zm-61 1v1zm327 1 3 3 2 4c1-1-4-7-5-7m-330 2-1 3h-1q1 1 2-1zm212 1h2zm-95 0h3zm90 0 1-1h2-3m-146 1v1zm143 2v6-7zm-207 1-1 1v1l-1 1v1zm62 1-2 4-1 5v-2l1-2 1-1 1-1v-1zm277-1 2 3zm-208 3v3zl1-2zm211 2v1l-1-2zm-346 0 1 2 1-3zm251 2h1zm98 5 1 1zm-290 4-1-1zm158 1 1 1zm1 1 1 1v1l1 1v-1zm-88 5h1zm160 0q0-1 0 0m-73 0h1zm-161 2v1zm235 3q0-1 0 0m0 2 1 2v-2zq0-1 0 0m-301 2v1zm64 2v1zv-1zm-65 1 1 1zm289 0v1zm-225 4 1 2v-4zm114 1 2 1h-1zh-1zm2 2 2 1zm125 7v5-9zm-217-2 1 1h1zm2 3 1 1zm-26 10 1 2v-4q-1-1-1 2m66-1q1 0 0 0m109 2q-1 0 0 0h1zm-101 1h2zq0-2 0 0m95 0v-1zm-168 2q0 2 0 0v-1zm304 1 1 1zm1 0v1zq0-1 0 0m-221 2 2 1v-1h-1q2 0 0 0zh-1zm154 0q0 1 0 0h1zq0-1 0 0m-177 4v-2zm243-2v-2zm-303 1q0-1 0 0m150 0-1 1zq2 0 1-2zm-149 3q0 1 0 0h1zm42 1v1zm-107 6 1 1v-1zm295 6v1zm-225 1 1 2v-1zq1-1 0 0m291 2-1 1v1zm-290 1 1 1zm-65 4 1 1 1 1-1-2zm351 3v1zl1-1 1-1q-1-1-2 2m-68 1v1zm-280 1 1 2zm278 2-1 2h-1l1 1 1-2zm65 3-1 2 2-2 1-1q0-2-2 1m-273 1h1zm205 0-1 1v1h-1v1l-1 1zq0-2-1-1m-203 2 1 1 1 1-1-2zm-67 0 1 1 1 1 2 2-1-1-1-2zm335 1-1 3zl1-1 1-1zm-265 3h1zm196 1 2-2zm65 1q-2 3 1 1l1-2zm-327 0 3 2-1-1-1-1zm68 0q1 3 3 3l-1-1zm190 2v1l-1 1-1 1-1 2 1-1 2-2 1-2zm-253 3 8 8-9-9zm66-1 11 11q1 1 0 0l-1-1zm251 2-1 1-1 1v1h-1l2-2zm-68 1-1 1v1l-2 2-2 2 3-3 1-1 1-1zm59 8-2 1zl1-2h1zm-299-1 1 2 1 1q2 0-1-2zm69 2 4 4-1-2zm160 1h2v-1zm-225 0 3 2 1 1 1 1v-1l-1-1zm291 1v1q0 1 0 0l2-2zm-68 2h-1q0 3 1 1zm65 0 1-1zm-218 0q0 2 2 1zm217 1q-1 2 0 0 1 0 0 0 0-1 0 0m-281 0 2 2 3 2-1-1-2-2zm213 1v1q0 2 0 0l1-1h1zm-146 1 1 1 1-1zm144 1-1 1 2-1zm-3 2v-1zm-202 0 3 2-1-1-1-1zm66 0 1 1 1 1v-1zq0-1 0 0m201 1q-1 0 0 0 1-2 0 0m-68 1q1 0 0 0l-1 1zm65 0v1zv-1zm-260 1 2 1-2-2zm66 1h2q2 0 0 0l-1-1h-1zm-62 1 1 1h1l2 1v-1l-2-1zm187 0q0 2 0 0h1zm-2 1-1 1zm63 0v1h1q2-3-1-1m-66 2-1 1zh1zm-3 1h2v-1zm-106 1 2 1 2 1h1l-2-1h-1v-1zm167 1q4-1 3-2zm-228 0 2 1-1-1zm166 1-3 1 1-1zm58 1h-1v1zm-155 1 2 1v-1zm92 0-3 1zm-153 1-1-1zm67 2 1 1q4 2 1-1zm77 0q0 1 0 0m61 0v-1zm-132 2q-2 1 1 1v-1zm3 2h2zm51 0 3 1h4zm61 2q-1 2 2 3l2 1-2-2h-1v-1zq1 0 0 0m-163 1 1-1zm173 7 2 1-1-1zm2 1 1 1v-1zm2 2h2zm-192 0 1-1zm66 3v1zm-74 2 1-1h-2m70 0-1 1h1zm69 1h1zm71 0 1 1 2 1-1-1zm-142 1-4 3q0 1 0 0l2-1zm-71 1q-1 2 0 0m145 0 4 2-1-1-1-1zm73 1 1 1 3 2v-1h-1zm-222 1 1-1zm67 2-1 2 1-1q-1 0 0 0l2-1zm-72 2-1 1-1 1 2-1zm69 0 1-1zm-2 1v1l-6 4-2 1-3 2q-1 0 0 0l-1 1-1 1 1-1h1q2 0 0 0l2-1 1-1 1-1 1-1h1l1-1 2-1 1-1 2-2zm99 0 1 2v-1zm6 5h1l1 1q-1 0 0 0l1 1h1l-1-1-1-1zh-1zm5 3h1zm-192 1q-1 0 0 0m-2 1h-1zq0-1 0 0m268 0q0-2 0 0m-200 2v-1zm132 0 1 1 1 1h1l1 1 3 2h1l1 1 1 1h1v1l2 1 2 1 1 1h1l1 1 2 1 1 1 1 1h1l1 1-6-5zm-134 0v2zm209 3 1 1zm-283 0h1zm69 1-1 1zl1-1h1zm-70 0v1zh1zm67 2-1 1h-1l3-1zm221 22v22h1v-1zv-22zm-226-18q-1 0 0 0m-8 5-2 1zl1-1zm180 1 1 1zm6 4 1 1h1l-1-1zm-195 1q0 2 0 0 2-1 0 0m-2 1-1 1-1 1h1v-1l2-1zm200 0 1 1 1 1v1-2zm-204 3-1 1q-2 0 0 0zq2-1 0 0m212 1q2 2-1 1l-1-1zm-216 1-1 1-1 1-1 1 1-1h2v-1zl1-1v-1zm217 2h1l1 1h1l-1-1zm-222 2v1q-1 0 0 0zl1-1zm227 1 1 1 2 1h1l-2-2q-5-3-2 0m-230 1q1 0 0 0m236 1 1 1h1-2zm-240 1v1zm-3 2 1-1zm245 0 2 1v1q2 0-1-2zm-248 2v-1zm-1 1v1zq1 0 0 0m256 1v1zm-260 2-1 1h-1 1zq1-1 0 0m262-1q0 2 1 1zm4 4q-2 0-1 1m-273 1-1 1zl2-1zm278 2 1 2h1v-1q2 0 0 0h-1zm-281 0v-1zm-4 3v-1z"/><path fill="#959494" d="m283 76 1 1 1 1zM51 84q0 2 0 0m103 19h1q2-1-1-1zm89 0h1zm-102 64v1zm-13 19h1zm5 3h3zm126 0 1 1zq-1 0 0 0m-68 166"/><path fill="#9b9fa0" d="M228 36q-2 1 0 1h7q0-2 0 0h2l-4-1h-2 4-6q-1 0 0 0zm-63 0h2zl-4 1h7q5 0 2-1h-1q1 0 0 0zh-3zm10 1q-2 1-1 2l1-1 1-1v1h1zm64 0h-1zl2 1q2 0 0 0v-1zm-16 1 4 1h-1l-1-1h-1zm-71 0q1-1-1-1m93 0 1-1zm-96 0h-1 5-2v-1zm23 1q0-1 0 0 3 0 1-1zm75 0q-1 0 0 0h2l6 1-2-1zm-102 0h-1 2l1-1zm25 1-3 2 1-1h2q2 0 0 0zm-33 1-1 1zh2l2-1h-1q-4 0-1-1zm92 0 2 1v-1h-1q0-1 0 0zh-1zm30 0 2 1q3 0 2-1zm-125 1h-1q-1-1 0 0zm130 0q1 0 0 0m-133 0h1zq-2 0 0 0m33 0h-1v1q-2-1-2 1h1-1 1v-1h2l2-1zm70 1 2 1h1v1l1 1h2q2 0 1 1v-2h-2l-1-1-1 1v-1l-1-1zm-104 0v1zm139 1q-1 0 0 0h1zm-145 0q0 1 0 0h1q0 1 0 0zm149 0h2l-1-1zm-115 1-1 1v1h-1 2zm-38 1q-1 0 0 0h2zm158 0h2l1 1h1v-1zm-160 0v1zm37 1-1 1h-2 3zm87 0 2 1h1v-1zm-128 0-1 1h3l-1-1zm170 1 2 1h1v-1zm4 1q2 2 5 1h-3zm-181 1-1 1h-1q-1-1 0 0h-2l-1 1v1l1-1h1l1-1h1zh1v-1zq2-1 0 0m43 0h-1l-2 1-1 1-2 1v1q-2 0 0 0h1q1 0 0 0l1-1h1v-1l1-1h2zm98 0h1v1h1v-1l-2-1zm45 0v1q0 2 0 0l4 2q1 1 0 0l-1-1zm-41 2 1 1zM99 52h-2l-1 1q0 2 0 0h2zm153 0 1 1h2-1l-1-1zm48 1 2 1-1-1zm-159 1h-2v1zm-47 0v1zm161 0h1l2 1v1l1 1h2v-1h-1l-1-1-1-1q-1 0 0 0h-1v-1h-1v1zm48 0 1 2zM93 56l1-1zm44 2v1h-1v1h-1l-1 1v-1l-1 1-1 2v-1l-1 1-2 2-1 1-1 1h-1l-1 1-1 1q0 1 0 0h1l1-1 2-2h1l1-1 1-1 2-1 1-1 1-1h1v-1q2 0 0 0l1 1v-2h1q-1 0 0 0zq0-1 0 0 0-2 0 0m2 0 1-1zm-50 0h-2q1 0 0 0v1zv-1zm220 0q-1 0 0 0h2v1h1v-1l-2-1zm-47 2 2 2q1-2-1-2zm51 0 2 2h1l1 1h1l2 1 1 1h1v-1h-3v-2zM84 61l-2 1zl1-1zm-3 1v1zm185 0 2 1 1 1h-1l2 1 1 1v1-1h1v1l1 1v1h2l-2-1-1-2-1-1-1-1-3-2q0 2 0 0zM79 63l-1 1h-1l1 1zm-5 3-1 1h-1v1h-1l-1 1h2v-1h1l1-1zv-1h1v1-2zm249-1q-1 2 1 2h1q-1 2 0 0v-1h-2zq1 0 0 0m4 3 2 1 1 1 1-1zm-52 2 2 1h1zm-154 0q1-1-1-1m-53 1h-1l-1 1-1 1q0-1 0 0h-1l-3 4 1-1 1-1 1-1q-1 0 0 0h2q-1-1 1-1zm262-1 1 2h1l1-1-2-1zm-211 2-7 7v1l1-1q0-3 3-3v-1l1-1h1l1-1h-1v1zl2-1zm160 0 1 2 2 2v1-1h1q2 0 0 0l-1-1-2-2zm55 1 3 2 2 1h1q0 2 0 0l-2-2q-2 0-1-1l-1-1h-1v1zq0-1 0 0M59 77l-2 2-1 1q-1 0 0 0l-2 1v2l-2 1h-1v1l-2 1-1 1-1 2-2 1q1-1 0 0l-2 2-1 1-1 2h1-2v2h-1v-1l-1 2-1 1v1l-1 1-1 1-1 1v1h1v-1l1-1 1-1 1-1v-1l1-1 3-2 2-3 2-3 3-2v-1l2-1 1-1 1-1 1-1 3-2v-1l2-1zm281 0v1l1 1q2 2 0 0h2q2 0 0 0l-2-1zm-54 2v1l4 4-1-2-1-1zm2 1h-2zm-178 1-1 2h-1l-1 1-1 1v1l-1 1-1 1-1 2h-1 1l-3 2v2l-3 4h1v-1h1v-1q-2-1 0 0l1-1 1-1v-1l2-2 1-1 1-2 1-1 1-1 1-2zh1zm233 0 1 1h2v1l1 1 2 1-1-1-2-2zm-53 4 1 1v1l2 1 1 2v-2l-2-1v-1h1-1zm59 1 2 2 6 5q1 0 0 0v-1h-1l-1-1-1-2-2-2-1-1zh-1zm-53 4v1l1 1 1 1v1-1l-1-1v-2zM43 93l-1 1zm255 2h1q2-1 0 0l1 1v1l1 1v-2h-1v-1zm60-1v2l1 1zm1 1 1 2 1 1 1 1 1 1q-1 1 1 2l1 1q-1 0 0 0l1 1 1 1v1-1l-2-2v-1l-4-5zm-57 3v1l1 1q2 0 0 0zm-206 2-1 2-1 1q0-2 0 0l-1 1v1q2 2 0 0l2-2q0 1 0 0zm208 2 1 2v-2q-1 0 0 0zm-151 1 1 1zq2 0 0 0-1 0 0 0m3 0q-2 0 0 0m86 0q2 0 0 0l-2 1h-1l-3 6q0 2 0 0l1-2 1-1 3-3zh6l-1-1h-5m-85 0q-2 1 1 1h1zm92 1h1v1h2l2 1 1-1h-1l-2-1h-2zm-217 1v2-1h1zq0-1 0 0m114 0v1zm106 1-1-1zm-109 0h2zm163 0 1 1-1 1 1-1v-2zm-164 0v1zm113 1h1l-1-1zm113 0 1 2v-1zm-277 1-2 3v1h1l1-2zv-1zm49-1 1-1zm117 0 1 1h1v1h3l2 1 2 1v-1 1l2 1h2l-1-1h-2l-1-1-2-1h-1l-1-1h-2l-2-1v1zq2 0 0 0m-119 1-1 1zl2-1zm24 2-1 3h-1v1l-1 1v1l-1 1-1 1q1 0 0 0v1l-1 1-1 1v1l-2 2-1 1h1l1-1 1-1 1-1 1-1v-1l1-1 1-1v-1l1-1 1-1v-1l1-1v-5zm-28-1-4 1-2 1-1 1h2l2-1h3q0-2 1-1l1-1zm-105 1v1q0 2 0 0zv1zq2-2 0 0m208 0v2zl-1-1zm71 1h1q2 0 0 0v-1zm62 0 1 2v1l1-1v-1l-1-1zm-61 1h1zm-184 0h1q2 0 0 0zm146 1h2zh-2zm-148 0-1 1zh1v-1zm-96 1 1-1zm61-1-1 1v2l-1 2h1v-2l2-3zm188 1 1 1 2 1h1l1-1h-1l-2-1zm-39 1 1 1 1 2 2 2 1 2 2 2v-1l-1-1-1-1v-1l-1-1v-1l-2-2v-1l-1-1zm73 0-1-2zm-192 0v1l1-1zm255 0v1l1 1zq-1-2 0 0m-348 1-1 2v2l1-1zv-2zm91-1 1-1zm-2 1 1 1 2-1zm-1 0v1q0 1 0 0zm170 0 1 1q0 2 0 0zm29 1v2zm-202 0h2v-1zm175 0 4 1q1 2 3 1l1 1h3l-1-1h-4l1-1h-1l-3-1h-2zm-177 2-1-1zm266-1 2 2-1-1zm-289 2v2h-1v1l-1 1h1q0-2 0 0h1v-2zq0-4-1-1m19 0h-1q-1 0 0 0zq-2 0 0 0l1-1zm209-1v2h1v1h-1 1v1l1 3v-1q-1 0 0 0v-2zm-16 2 1 1 2 1-1-1h1l2 1v-1h-1q0 1 0 0l-2-1h-1zm-199 1h-2l-1 1h3zh1zm-77 1v2l1-1v-1zm72 0 1-1h-2m211 1 1 1 2 1h1l1 1 3 1-1 2-2 3v1h-1v2l-1 1h-1v1l-1 1-1 1-3 4h1-1l-1 1v1q0-1 0 0v1l1-1 1-2 1-1 1-1v-1h1v-1l1-1 1-1 1-1 1-1v-1l1-2 2-2 1-1v-1l-1-1h1v-1h-1l-1-1h-1l-2-1h-1l-2-1zm-60 0v1l1 2 1 1 1 1-1-3v-1zm-161 2v2zq0-3 0 0m294-1v2l1 1q-1 1 0 0v1l1 1v-1l-1-3zm-225 2-2 1 1 2h2l1 1v-1q-2 0 0 0h2-2l-1-1h-1v-1l1-2zm-132 0h1zq-1 2 0 0m295 0v-1zm-229 1v1q0 1 0 0zl2 4 1 2h1l1 2q2 0 0 0v1h1v1l1 1h1q0-1 0 0l1 3 1 1h1l-1-2-1-1-3-4-2-3h-1l-1-2v-1q1 1 0 0zq2-2 0 0m161 0v1l1-1zm-228 1v1zm63 0 1 1zm235 1q-1 3 1 3l-1-1v-3zm-72 0-2 1h-2v1h-2l1 1q-1 0 0 0l3-1zv-1zm-90 1 6 1h1l1 1v-1h-3v-1zm225 0 1 1v3q0 1 0 0h1l-1-2v-2zm-142 1v2-1q-1 0 0 0zm-156 1q-1 2 0 0v1q0 2 0 0zm81 0q-2 0 0 0l2 1h2l1 1h1q1-1-1-1l-2-1zm72 0q-3 1-1 2l1-1 1-1zm82 1 1-1zm-301 1 2 1zm153 0h2q2 0-1-1zm61 0-1 1h-2v1zh1v-1h-2m-149 1q2 1 1-1m91 0 1 1 3 1q1 0 0 0h1l1 1 2 1h1v1l5 2v1h1l4 3 2 1 1 1h1l1 1v1q2 0 0 0h1v1h3q1 0 0 0-2 0 0 0l1-2v1h-2l-2-1-1-1-2-1-2-2-2-1-2-1q-2 1 0 0 0-1 0 0l-1-1-4-2-1-1h-1l-1-1h-1l-1-1-4-2h-1q0-1 0 0l-1-1zm210 1v3q-1 0 0 0zm-157 0v1h1q3 0 1-1-1 2 0 0zm-209 1v-1zm206 0-1 1-1 1h-1l-4 2-2 2-2 1-1 1h-1l4-1 1-1 3-2h1v-1h2l1-1 1-1 2-1zm-142 2q0 2 0 0 0 1 0 0m-64 0h1zm303 0v3-4zm-304 3v1zq0-1 0 0m64 0h1zm240 0v2zm64 2q0 3 1 0v-2zm-287-1 1 1 1 2 1 1 1 1 1 2 1 1 1 1 1 1 1 1v2l3 3q0 2 2 1 0-1 0 0-2 0-1-2h-1l-1-2-2-3-2-1v-2l-2-1q1-2-1-1v-2h-1zm-17 2v2zm305 0 1 1q0 3-1 1zv4l1 4v3l1 1-1 1v9-20zm-369 1-1 2zm193 0-1 1h-2v1h-1v1h-1 2q1 0 0 0l2-1zm-16 1-1-1-1-1 1 1zm108 0-1 1q2 2 0 0l-2 1-1 2v1l1-1-1 1v1l1-1v-1h1v-1l1-1zm20 0-1 14q1 1 1-2 0-1 0 0v-13m-241 1-1 2q0 3 1 0zm216 6q-1 2 0 0m-3 2-1 2-1 2h-1q1 0 0 0l-1 2v2h-2v2l-1 1h-1l-1 2-1 2h1v-1h1v-1l1-1 1-2 2-1v-2l2-3 1-1 1-2zq-1 0 0 0l1-1v-1zm-214 5 1 2zl-1-1zm31 0h1q0-2-2-1m2 2v1l1 1 2 2q1-2 0 0v1l2 2 1 2h1v1l1 1 1 2 2 2 1 1v-2l-1-1-1-1h-1l-2-3-1-2q0-2 0 0l1 1-2-3-1-1-1-1-1-2-1-1v1-1l-1-1zm-32 2v2zm61 1v3h1-1l1 1v-6h3l-2-1h-1zm4-2-1 1zv-1zh1v-1zm3 2h3l1 1h1l3 1 1 1 3 1q2 0 1-1v1l-1-1h-1l-1-1h-2l-1-1-2-1q0 1 0 0h-2l-2-1zm108-1-2 1h-1 3c2-1 2-1 2 10v10q1-1 0 0l2 2v-1q-1 0 0 0v-1l-1-1v-10q0-12-1-10zm-241 2v3l1 1zm236 0-4 1h-1l1 1h1q-1 0 0 0l1-1zm-6 2v-1zm140 1v1q0 2 0 0 1-2 1 1 0 1 0 0zm-223 1 2 1 2 1h1v1h2l1 1 2 1q-1-2-4-2v-1h-1l-3-2zm77 0-1 1-1 1h-1q-1 0 0 0l-4 2-1 1-3 1-1 1-3 3q-1 0 0 0l-4 3 1-1q2-3 2-1l2-1 1-1h1l1-1 1-1h1v-1h1l1-1 2-1v-1 1h1l1-1 1-1 2-1 4-1zm-159 0 1 1v-1zm-65 1 1 1zm264 3-1 2v1h-1v1l-1 1q0-1 0 0-2 0 0 0l-1 1-1 1-1 1 1-1h1l-1 1-1 1v1h-1l-1 1v1h1l1-1v-1l1-1 1-1 1-2 1-1 1-1v-1l1-1 2-3q0-3-2 1m105-1 1 2zm-242 2v1-2zm-61-2v1l1 2v1q0-1 0 0zm90 1-1-1zm148-1-1 1h1zm-303 2q0 3 0 0v-1zm1 1q0 1 0 0v-1zm155-1 2 2 1 1h1l1 1 1 1 1 1 2 1-2-2-2-2-2-1-1-2-1 1v-1zm-155 3v1zm301 0v3zq0-1 0 0m65 1h2l-1-1zm-257 1 1 2 2 2q2 3 3 2h-1l-3-4v-1q-2-3-2-1m-43 0v1l1 1v3q0 1 0 0h1v-2l-1-2zm58 1v1l1 1zv-1h1zm175 1 2-1h-1q0 2 0 0zm-299 1h2zm124 0-2 3h-1l-1 1q0-1 0 0zm174 2v4l1-2v-3zm66 0h2zm-247 1h3zm-115 1 1 2v1l1-1-1-1q1 0 0 0zm66 1h1zm177 0 1 1h2-1zq2 0 0 0-1-2 0 0m6 0-1 1-1 1q1 1 4-2zm-182 2q0 2 1 1zm294 0h-1v1h1l-1 1h-1v1l-1 2q1 1 1-1l1-2 1-1zm-358 3v2l1 1v-2zq0 2 0 0m65 0 1 1 1 2q0 1 0 0v-2l-1-1zm224 4-1 2-1 2h1v-2q2 2 0 0h1v-1zv-1zm-222 0v1l1 1v-1zv-1zm288 0-1 2v1-1h1zm-353 2 1 1v-1zm350 2v1l-1 3 1-2 1-1v-1h1zm-66 1v1h-1l-1 3q0 1 0 0l-1 1h1q2 0 1-2l1-2 1-1h1zm-282 1 1 1 1 2h1v1h1v-1l-1-1-1-2v-1l-1 1q0 2 0 0v-1zm67 0 1 1q-1 0 0 0v1l1-1h-1 1v-1h-1zm279 2-1 1-1 2-1 2v1h1v-3h1q2-1 0 0h1v-1zq1-1 0 0m-277 2 1 1v1l1 1 2 2q-1 0 0 0l1 1v-1q1 1 0 0l-1-2-1-1h-1v-1l-1-1q1-2-1-1m208 2-1 2v1q0-1 0 0l1-1zm-272 1 1 1v-1zm336 2h-1l1 1h1v-3zm-66 1v1h-1v1h-1v1l-3 2v1l-1 2-1 2 1-1 4-5 1-1 1-1v-1zl1-1zm-266 2h-1zm65 0v-1zm265 0-2 1-1 2-2 2v1h-1l3-2 3-3zq0-3-1-1m-329 2 1 2 1 2 1 1v-1h1l-1-1-1-1-1-1zm66 0q-1 0 0 0l2 3 1 1 1 2 4 3-1-1v-2h-1l-1-2h-1l-1-1v-1l-1-1-1-1zq0-2 0 0m-61 5 13 13q2 2 0 0l1 1 2 1-1-2-2-1-1-1-1-1-6-5zm316 3-2 2h1v-1zv-1zm-66 0-1 1-1 1-2 2h-1v1h-1v1q0 2 0 0l-3 2 7-5zm-180 2 10 9h1-1l-2-3h-1q1 1 0 0l-1-1-3-3zm242 1v1h-1l-1 1-1 1-1 1-2 1-1 2v-1h1v1l1-2 2-1 1-1 1-1zm-72 6-1 1-1 1v1h-1v1l2-2 1-1q3 0 1-1zm-224 3v1h2l-1-1zm287-1-1 1-4 3-2 1-2 1h-1l1 1q0-2 0 0l2-1 1-1q0-1 0 0 1 0 0 0h1l1-1h1v-1l1-1 1-1zm-222 2v1h1l1 1q2 3 2 1v-1h-1v-1h-1l-1-1-2-1zm220 0h-1l1-1zm-283 1h1l1 1q-1 0 0 0l2 1h2l-2-1h-1zm216 1-1 1h-1 1zm-3 2-1 1h-1q1 0 0 0l-1 1h-2l1 1q2 0 0 0l-1 1 2-1 1-1q2 0 0 0h1zq2-1 0 0m-144 0v1h1l2 1 1 1 1 1h1l1 1v1l1 1 1-1v1h1l1 1h1v1h1l1 1-1-2h-1q0-2 0 0h-1v-2h-2l-2-1h1v-1h-2l-1-1q0-2 0 0l-1-1h-1q-2 0-1-2zm-62 1q-1 1 0 0l1 1 2 1v-1l-2-1zm266 1h-1l1 1zm-263 1 1 1v-2zm262 0-1 1h-1 1zm-259 2 1 1zm192 0h-2q-1 0 0 0l2 1 1-2zm63 0q0 1 0 0h2q1 0 0 0l1-1zm-254 1 2 1v-1zm252 0 1 1zm-249 1v1h3v2-2zm247 0-1 1h-1 4v-1zm-63 1-1 1h-2l-2 2q0-2 0 0h-1l1 1 1-1h1q0-1 0 0l1-1 1-1zq0-1 0 0m60 1h-1l-1 1h1zm-240 1h2l1 1q0 2 0 0h1q-1 1 1 1l2 1v-1l-2-1q-2-2-5-1m64 1 2 1 1-1zm171 1h-1q-3 2-1 2 0-2 4-2zm-168 1h1l1 1h1l1 1h1v-1h-2v-1h-1v-1zm105-1-1 1h1q1 0 0 0h2v-1zm-164 1v1q2 0 0 0zv1l1 1h1l1 1h1l-1-1v-1h-2zm162 1-2 1zh1zm60 0-1 1h-1l-1 1q-2-1-3 1 0 1 0 0h1l1-1h3v-1zv-1h1-2m-157 1q-1 0 0 0h2v1h3-1l-1-1-2-1zm-60 1h1q0 2 0 0zm152 1h-1l3-1zm-3 0-1 1h-1 2zm-144 0q-1 1 1 2l1-1h-1zm205 0-1 1zm-146 1h1q0-1 0 0l1 1 1-1v-1l-1 1zm143 0v1zm-199 1h1q2 0 0 0zq-2-1 0 0m2 0 1 1 1 1h2q0 2 0 0l-1-1h-1l-1-1zm135 1-2 1h-2q-1 0 0 0l1 1 2-1zm57 0h-1l-1 1zl1-1zm-132 0h2v1h2v-1 1h1l-2-1zm-55 1h2zm3 1h2q0-2-2-1m178 0 1 1v-1zm-120 0h1l3 1h-1v-1h-2zm118 1 1-1zm-57 0-2 1zv-2zm-114 0v1h1zm167 0v1h2zv-1q1 0 0 0zm-164 1q-1 0 0 0m161 0h2v1l2 2 1 1 3 1h1-1v1h1l2 2 3 1-2-1v-1l-1-1-2-1-2-1h-1l-1-1-1-1q0-2 0 0l-1-1h-1l1-1q1-1-2-1m-160 1-2 2v1h-1l-1 1q-1 0 0 0h-1v1l-1 1v-1l-1 1v1-1q2 1 2-1h1q2 0 0 0l1-1h1v-1h1l1-1 1-1h1l-1-1zm55 0 1-1zm-64 7-1 1-1 1h1l1-1q1 1 1-1zm109 0 1 2v-1q0-2-1-1m-42 1h1zm44-1q0 2 1 1l1 1v-1zm-45 1-2 1q-3 1 0 1zm-70 2h-1l-1 1 1 1 1-1q1 0 0 0zm119 0 2 1-1-1q0 1 0 0zm69 0v1h1l1 1 2 1v1h1l1 1h1l1 1q0 2 0 0-1-1 0 0h1l-1-1-1-1h-1v-1l-2-1h-1v-1h-2zm-122 2h-1l-1 1-2 2h1l1-1zm56-1 2 2q2 0 0 0zm-126 1-2 2h-1l-2 2h-1l-1 1h-1v1h-1l-1 1-1 1h-1 1q3 0 3-2h1l2-1 1-1 1-1v1l1-1 2-2h1l1-1zm130 3h1zm-65 0q-1 1 0 0m-2 1-2 1-1 1h-1l1 1 1-1h1l2-2h1zm68 0h1l1 1 1 1h1v1h1v-1h-1l-1-1-1-1zm70 0 2 2 2 1q0 1 0 0l1 1v-1l-2-1q0-1 0 0h-1v-1l-1-1zm-144 4-1 1zh2v-1zm80-1 3 2-2-1zm70 1 1 2q2 0 0-1zm-217 0-1 1zm-4 2-1 1q-2-1-2 1h2zm68 0q-3 1-1 2zq1-2-1-1m86 0 1-1zm2 0q0 2 2 1zm68 0 1 1 1 1 1-1h-2zm-227 2h-1q-1 0 0 0l-1 1zq-1 0 0 0m66 1v1zq-2-1 1-1v-1zm95-1 1 1 1 1h2l1 2 3 2h1v1-1l1 1 1 1v-1l1 1 1 1 1 1v-2l-2-1-2-1q0 1 0 0l-1-1h-1l-1-1q-1 0 0 0l-1-1-2-1-1-1h-1l-1-1q1 1 0 0zm70 1 2 1v-1h-1zm-167 2h-2v1h1v1l1-1zm-69 0q-1 0 0 0 2-1-1-1m239 0 1 1 1 1 2 1 1 1 2 1 1 1h1l1 1h1l-3-2-1-1-2-1q0 1 0 0l-1-1zm-240 1-2 1q1 0 0 0l-1 1-1 1h-1l-1 1-2 1-1 1h2l1-1 1-1 1-1q3 0 1-1h2v-1zq0 2 0 0m65 2-1 1h-1l-1 1h-1l-1 1 3-1zl1-1 1-1zm-7 4-1 1-1 1-2 1-1 1v2l1-2 2-1v-1h1l1-1 1-1zm124 0q0 2 1 1l2 1 2 2q0-2 0 0h1l1 1 1 1-1-1v-1q0 1 0 0l-1-1-2-1-2-1-1-1zm-192 1v1q0 2 0 0zm262 0q1 2 3 1l-1-1zm-265 1h-1v1h-2v1q-1 0 0 0l-1-1v1l-1 1-1 1h-1l-1 1h-1l1 1h-2l-1 1h-1v2l1-1 1-1 2-1 2-2 1-1v1q-1 1 0 0h1v-1l2-1 2-1zv-1zm199 0h-1zm70 1 1 1h1l1 1q1 0 0 0l1 1 2 1 1 1v-1h1-1l-1-1-1-1h-1v-1zm-204 2-2 1-1 1-2 1h2l1-1 1-1zm138 0 2 1 1 1 1 1 1 1 2 1 2 1 1 1v-1h-1v-1h-1l-1-1-1-1h-1l-1-1-2-1-1-1zm-144 3-1 1-1 1h-1v1l-2 1-2 1h2l1-1 1-1 2-1 2-2zm218 1v43h-1l-2-1-1-1-1-1h-1v-1h-2v-1q-1-1 0 0h-2 1v1h1l1 1 2 1v1h1l2 1 1 1c2 1 2 1 2-22l2 21zm-62 4 1 1h1q0-1 0 0zm-166 2-2 1v1h1q0-1 0 0h-1l-1 1h-2v1h2v-1l2-1 3-1v-1zq1-1 0 0m169 0q3 0 2 1l-1-2zm3 2 1 1 1 1h1v1h2v1h1v1l1 1 1 1v-1q0-2-2-2l-2-2h-1v-1l-2-1zm-179 3q0 2 0 0m-1 1-1 1-2 1q-2 0 0 0v1h-1 2q0-1 0 0l1-1q-1 0 0 0h1zq-1 0 0 0m190 2v1h2q0 2 0 0zq-1-1 0 0m-197 2q2 0 0 0l-1 1-2 1q-2 0 0 0v1l1-1v1l1-2h1l1-1h1v-1q2 0 0 0zm199 0q-1-1 0 0h1l1 1h1q-1-2-3-2m4 3 2 1q1 0 0 0v1l3 1v1h1l2 1h1q2 0 0 0l-1-1h-1l-1-1h-1v-1h-2v-1l-1-1zm-209 1-2 1-1 2-2 1h-1v1h-1l-1 1h1l1-1h1l1-1q0 1 0 0l1-1q0-1 0 0h1v-1h1l1-1q2 1 1-1v1zq0-1 0 0m218 5 5 3q0 2 0 0l-1-2h-1l-1-1h-1v-1h-2m-227 1h-1l-2 2h1l1-1h2v-1q-1 0 0 0zm-4 3-1 1h2zq0-1 0 0m238 0 1 1q1 0 0 0zm-241 2h-1 3l1-1zm244 1q-1 0 0 0h2zm-247 1h-1l-1 1h-1l-1 1-1 1-1 1-1 1h-2l-1 2v-1l-1 1-2 2q-1-2 0 0h-1l-1 1h-1q0-2 0 0v2l-1-1q0-1 0 0-1 0 0 0l-1 1-1 1 1-1 2-1 3-1 1-1 2-1v-1l2-1h1v-1q2 2 0 0h1l1-1 1-1q0 1 0 0l2-1 1-1v1-1q-2-1 0 0zq1-1-1-1m250 0h2zm3 3 3 1v-1zm-137 6"/><path fill="#948c92" d="M176 36h2l-1-1zm-11 1h1q1 0 0 0zm-37 6h2l-1-1zm160 6q1 0 0 0m-4 29h2zm1 2h3-1zm-180 6-1 1zl1-2zm245 1 5 5-2-3zm-107 17h1zm-84 0 1 1q2 0 0 0zm-14 2h2zm16 1v6zm-28 2h1zh1q2 0 0 0v-1zm-11 5 1-2zm-28 9-1 1h2zm-7 3-1 1zm151 7v-1zm147 25v2l1-1zm-95 2q-1 2 0 0h1zm30 3q0 1 0 0h1zm-180 4v1zm82 15v1zm-2 2v2zm51 1v1h-1 1zv-1zm-137 4h2zm130 2v1zm-162 30 1 1zm258 0v1l2-2zM48 232l2 1zm300 1 1-1zm-126 36h3zm122 66v22q-2 0 0 0 0-2 0 0v1q-2 0 0 0zv-22z"/></g></svg>