<svg width="512" height="512" viewBox="0 0 512 512" fill="none" xmlns="http://www.w3.org/2000/svg">
  <rect width="512" height="512" rx="96" fill="#06070A"/>
  <path d="M165 406V318C123 285 96 237 96 184C96 112 149 58 225 58" stroke="#F8FAFC" stroke-width="32" stroke-linecap="round" stroke-linejoin="round"/>
  <path d="M347 406V318C389 285 416 237 416 184C416 112 363 58 287 58" stroke="#F8FAFC" stroke-width="32" stroke-linecap="round" stroke-linejoin="round"/>
  <path d="M256 182V406" stroke="#F8FAFC" stroke-width="34" stroke-linecap="round"/>
  <path d="M256 182L190 141" stroke="#F8FAFC" stroke-width="30" stroke-linecap="round"/>
  <path d="M256 182L322 141" stroke="#F8FAFC" stroke-width="30" stroke-linecap="round"/>
  <path d="M190 141L214 141L197 118" fill="#F8FAFC"/>
  <path d="M190 141L214 141L197 118" stroke="#F8FAFC" stroke-width="18" stroke-linecap="round" stroke-linejoin="round"/>
  <path d="M322 141L298 141L315 118" fill="#F8FAFC"/>
  <path d="M322 141L298 141L315 118" stroke="#F8FAFC" stroke-width="18" stroke-linecap="round" stroke-linejoin="round"/>
  <path d="M117 406L165 372" stroke="#F8FAFC" stroke-width="30" stroke-linecap="round"/>
  <path d="M395 406L347 372" stroke="#F8FAFC" stroke-width="30" stroke-linecap="round"/>
  <circle cx="256" cy="256" r="188" stroke="url(#ring)" stroke-width="1.5" opacity="0.35"/>
  <defs>
    <linearGradient id="ring" x1="96" y1="58" x2="416" y2="406" gradientUnits="userSpaceOnUse">
      <stop stop-color="#C8FF2E"/>
      <stop offset="0.5" stop-color="#1193B0"/>
      <stop offset="1" stop-color="#DA7756"/>
    </linearGradient>
  </defs>
</svg>